<svg xmlns="http://www.w3.org/2000/svg" xmlns:xlink="http://www.w3.org/1999/xlink" width="1920" height="866" viewBox="0 0 1920 866"><defs><linearGradient id="a" y1="0.5" x2="1" y2="0.5" gradientUnits="objectBoundingBox"><stop offset="0" stop-color="#101b4d"/><stop offset="1" stop-color="#002"/></linearGradient><linearGradient id="b" x1="0.5" x2="0.5" y2="1" gradientUnits="objectBoundingBox"><stop offset="0" stop-color="#7692ff"/><stop offset="1" stop-color="#2a3a78" stop-opacity="0"/></linearGradient><linearGradient id="c" x1="0.5" x2="0.5" y2="1" gradientUnits="objectBoundingBox"><stop offset="0" stop-color="#f72"/><stop offset="1" stop-color="#5373f0" stop-opacity="0"/></linearGradient><clipPath id="e"><rect width="1920" height="866"/></clipPath></defs><g id="d" clip-path="url(#e)"><rect width="1920" height="866" fill="#fff"/><rect width="1920" height="1150" fill="url(#a)"/><g transform="translate(502 47.001)"><g transform="translate(0 25.958)" fill="none" stroke="#7692ff" stroke-width="1"><circle cx="372.884" cy="372.884" r="372.884" stroke="none"/><circle cx="372.884" cy="372.884" r="372.384" fill="none"/></g><path d="M52.622,39.179,26.592,91.964,0,153.982,52.622,268.011l102.323,38.247,102.34-38.247L308.52,153.982l-51.235-114.8L154.945,0Z" transform="translate(528.538 244.255) rotate(90)" fill="rgba(83,115,240,0.2)"/><ellipse cx="1.648" cy="1.236" rx="1.648" ry="1.236" transform="translate(274.913 384.924)" fill="rgba(255,255,255,0.5)"/><circle cx="1.236" cy="1.236" r="1.236" transform="translate(283.154 384.924)" fill="rgba(255,255,255,0.4)"/><path d="M13,318.084a13,13,0,0,1-13-13V85.706a13.146,13.146,0,0,1,.078-1.435Q0,82.49,0,80.693C0,36.128,36.34,0,81.168,0s81.169,36.128,81.169,80.693q0,1.8-.078,3.578a13.145,13.145,0,0,1,.078,1.435V305.084a13,13,0,0,1-13,13Z" transform="translate(456.204 319.001) rotate(90)" fill="url(#b)"/><g transform="translate(204.045 378.331)"><g transform="translate(0 0)" fill="#fff" stroke="#fff" stroke-width="1"><circle cx="1.236" cy="1.236" r="1.236" stroke="none"/><circle cx="1.236" cy="1.236" r="0.736" fill="none"/></g><g transform="translate(3.296 0)" fill="#fff" stroke="#fff" stroke-width="1"><ellipse cx="1.648" cy="1.236" rx="1.648" ry="1.236" stroke="none"/><ellipse cx="1.648" cy="1.236" rx="1.148" ry="0.736" fill="none"/></g><g transform="translate(7.416 0)" fill="#fff" stroke="#fff" stroke-width="1"><ellipse cx="1.648" cy="1.236" rx="1.648" ry="1.236" stroke="none"/><ellipse cx="1.648" cy="1.236" rx="1.148" ry="0.736" fill="none"/></g><g transform="translate(11.537 0)" fill="#fff" stroke="#fff" stroke-width="1"><ellipse cx="1.648" cy="1.236" rx="1.648" ry="1.236" stroke="none"/><ellipse cx="1.648" cy="1.236" rx="1.148" ry="0.736" fill="none"/></g><g transform="translate(15.657 0)" fill="#fff" stroke="#fff" stroke-width="1"><circle cx="1.236" cy="1.236" r="1.236" stroke="none"/><circle cx="1.236" cy="1.236" r="0.736" fill="none"/></g></g><g transform="translate(222.174 418.71)" fill="#fff" stroke="#fff" stroke-width="1"><circle cx="1.648" cy="1.648" r="1.648" stroke="none"/><circle cx="1.648" cy="1.648" r="1.148" fill="none"/></g><circle cx="1.236" cy="1.236" r="1.236" transform="translate(254.312 378.332)" fill="rgba(255,255,255,0.6)"/><g transform="translate(226.294 418.71)" fill="#fff" stroke="#fff" stroke-width="1"><circle cx="1.648" cy="1.648" r="1.648" stroke="none"/><circle cx="1.648" cy="1.648" r="1.148" fill="none"/></g><ellipse cx="1.648" cy="1.236" rx="1.648" ry="1.236" transform="translate(257.608 378.332)" fill="rgba(255,255,255,0.6)"/><g transform="translate(230.414 418.71)" fill="#fff" stroke="#fff" stroke-width="1"><circle cx="1.648" cy="1.648" r="1.648" stroke="none"/><circle cx="1.648" cy="1.648" r="1.148" fill="none"/></g><ellipse cx="1.648" cy="1.236" rx="1.648" ry="1.236" transform="translate(270.793 378.332)" fill="rgba(255,255,255,0.5)"/><circle cx="1.648" cy="1.648" r="1.648" transform="translate(243.599 418.71)" fill="rgba(255,255,255,0.6)"/><path d="M5.99,0a5.99,5.99,0,0,1,5.99,5.99V139.483a5.99,5.99,0,0,1-11.98,0V5.99A5.99,5.99,0,0,1,5.99,0Z" transform="translate(309.949 393.111) rotate(90)" fill="url(#c)"/><g transform="translate(391.104 536.549) rotate(90)"><circle cx="9.889" cy="9.889" r="9.889" transform="translate(5.768 5.768)" fill="rgba(255,119,34,0.43)"/><ellipse cx="15.657" cy="16.069" rx="15.657" ry="16.069" transform="translate(0 0)" fill="rgba(255,119,34,0.43)"/></g><g transform="translate(505.648 484.635) rotate(90)"><circle cx="9.889" cy="9.889" r="9.889" transform="translate(6.592 6.592)" fill="rgba(255,119,34,0.43)"/><circle cx="16.069" cy="16.069" r="16.069" transform="translate(0 0)" fill="rgba(255,119,34,0.43)"/></g><g transform="translate(505.648 281.093) rotate(90)"><circle cx="9.889" cy="9.889" r="9.889" transform="translate(5.768 6.592)" fill="rgba(255,119,34,0.43)"/><ellipse cx="15.657" cy="16.069" rx="15.657" ry="16.069" transform="translate(0 0)" fill="rgba(255,119,34,0.43)"/></g><g transform="translate(544.378 382.452) rotate(90)"><ellipse cx="9.477" cy="9.889" rx="9.477" ry="9.889" transform="translate(6.592 5.768)" fill="rgba(255,119,34,0.43)"/><circle cx="16.069" cy="16.069" r="16.069" transform="translate(0 0)" fill="rgba(255,119,34,0.43)"/></g><g transform="translate(278.209 281.093) rotate(90)"><ellipse cx="9.889" cy="9.477" rx="9.889" ry="9.477" transform="translate(5.768 6.592)" fill="rgba(255,119,34,0.43)"/><ellipse cx="15.657" cy="16.069" rx="15.657" ry="16.069" transform="translate(0 0)" fill="rgba(255,119,34,0.43)"/></g><g transform="translate(278.209 485.459) rotate(90)"><ellipse cx="9.889" cy="9.477" rx="9.889" ry="9.477" transform="translate(5.768 6.592)" fill="rgba(255,119,34,0.43)"/><circle cx="16.069" cy="16.069" r="16.069" transform="translate(0 0)" fill="rgba(255,119,34,0.43)"/></g><line x2="153.469" transform="translate(375.534 399.101) rotate(90)" fill="none" stroke="#7692ff" stroke-width="1"/><line x2="153.469" transform="translate(375.534 245.633) rotate(90)" fill="none" stroke="#7692ff" stroke-width="1"/><line y1="113.533" x2="102.122" transform="translate(489.066 399.101) rotate(90)" fill="none" stroke="#7692ff" stroke-width="1"/><line x1="102.122" y1="113.533" transform="translate(489.066 296.979) rotate(90)" fill="none" stroke="#7692ff" stroke-width="1"/><line x1="102.122" y2="39.366" transform="translate(528.432 296.979) rotate(90)" fill="none" stroke="#7692ff" stroke-width="1"/><line x1="102.122" y1="39.366" transform="translate(261.431 296.979) rotate(90)" fill="none" stroke="#7692ff" stroke-width="1"/><line x2="102.122" y2="39.366" transform="translate(528.432 399.101) rotate(90)" fill="none" stroke="#7692ff" stroke-width="1"/><line y1="39.366" x2="102.122" transform="translate(261.431 399.101) rotate(90)" fill="none" stroke="#7692ff" stroke-width="1"/><line y1="113.533" x2="51.346" transform="translate(374.963 501.223) rotate(90)" fill="none" stroke="#7692ff" stroke-width="1"/><line x1="51.346" y1="113.533" transform="translate(375.534 245.062) rotate(90)" fill="none" stroke="#7692ff" stroke-width="1"/><line x1="51.346" y2="113.533" transform="translate(489.066 245.062) rotate(90)" fill="none" stroke="#7692ff" stroke-width="1"/><line x2="51.346" y2="113.533" transform="translate(489.066 501.223) rotate(90)" fill="none" stroke="#7692ff" stroke-width="1"/><line y2="227.636" transform="translate(489.066 501.223) rotate(90)" fill="none" stroke="#7692ff" stroke-width="1"/><line y2="227.636" transform="translate(489.066 296.408) rotate(90)" fill="none" stroke="#7692ff" stroke-width="1"/><line x1="153.469" y2="153.469" transform="translate(528.432 245.633) rotate(90)" fill="none" stroke="#7692ff" stroke-width="1"/><line x1="255.591" y2="114.103" transform="translate(489.066 245.633) rotate(90)" fill="none" stroke="#7692ff" stroke-width="1"/><line x1="255.591" y1="114.103" transform="translate(375.534 245.633) rotate(90)" fill="none" stroke="#7692ff" stroke-width="1"/><line x2="255.591" y2="114.103" transform="translate(489.066 296.979) rotate(90)" fill="none" stroke="#7692ff" stroke-width="1"/><line y1="114.103" x2="255.591" transform="translate(375.534 296.979) rotate(90)" fill="none" stroke="#7692ff" stroke-width="1"/><line x1="153.469" y1="153.469" transform="translate(375.534 245.633) rotate(90)" fill="none" stroke="#7692ff" stroke-width="1"/><line x2="153.469" y2="153.469" transform="translate(528.432 399.101) rotate(90)" fill="none" stroke="#7692ff" stroke-width="1"/><line y1="153.469" x2="153.469" transform="translate(375.534 399.101) rotate(90)" fill="none" stroke="#7692ff" stroke-width="1"/><line x1="102.122" y2="113.533" transform="translate(375.534 296.979) rotate(90)" fill="none" stroke="#7692ff" stroke-width="1"/><line x2="102.122" y2="113.533" transform="translate(375.534 399.101) rotate(90)" fill="none" stroke="#7692ff" stroke-width="1"/><g transform="translate(52.739 327.561)"><circle cx="71.281" cy="71.281" r="71.281" transform="translate(0 0)" fill="rgba(83,115,240,0.43)"/><g transform="translate(0 0)" fill="none" stroke="#7692ff" stroke-width="2"><circle cx="71.281" cy="71.281" r="71.281" stroke="none"/><circle cx="71.281" cy="71.281" r="70.281" fill="none"/></g></g><path d="M-44.27-14l4.054,7.449v4.087H-38.3V-6.551L-34.25-14h-2.175l-2.7,5.126h-.247L-42.095-14Zm9.246,7.466a4.127,4.127,0,0,0,4.219,4.3,4.127,4.127,0,0,0,4.219-4.3A4.113,4.113,0,0,0-30.8-10.819,4.113,4.113,0,0,0-35.024-6.534Zm1.813,0A2.383,2.383,0,0,1-30.8-9.188,2.383,2.383,0,0,1-28.4-6.534,2.4,2.4,0,0,1-30.8-3.864,2.4,2.4,0,0,1-33.211-6.534Zm15.921,4.071v-8.125H-19.1v4.219a2.145,2.145,0,0,1-2.241,2.456,1.785,1.785,0,0,1-1.961-1.978v-4.7h-1.813v4.862a3.111,3.111,0,0,0,3.164,3.4A2.644,2.644,0,0,0-19.3-3.815h.231v1.351Zm3.84-8.125h-1.763v8.125H-13.4V-7.127a1.632,1.632,0,0,1,1.8-1.8h1.318v-1.7h-.857A1.9,1.9,0,0,0-13.22-9.336h-.231Zm10.877,0H-4.336v8.125h1.813V-7.127a1.632,1.632,0,0,1,1.8-1.8H.591v-1.7H-.266A1.9,1.9,0,0,0-2.342-9.336h-.231ZM1.5-8.594l1.516.857a2.459,2.459,0,0,1,2.373-1.5c1.22,0,1.9.626,1.9,1.566v.214l-3.049.313c-1.829.181-2.9,1.022-2.9,2.406,0,1.516,1.2,2.505,3.033,2.505a2.674,2.674,0,0,0,2.7-1.45H7.3v1.22h1.78V-7.622c0-1.928-1.417-3.2-3.626-3.2A4.412,4.412,0,0,0,1.5-8.594ZM3.212-4.82c0-.659.56-.939,1.417-1.022l2.653-.28v.132A2.248,2.248,0,0,1,4.745-3.732C3.756-3.732,3.212-4.161,3.212-4.82Zm7.334-1.714a4.149,4.149,0,0,0,4.236,4.3A3.866,3.866,0,0,0,18.8-5.364l-1.78-.412A2.114,2.114,0,0,1,14.8-3.864a2.429,2.429,0,0,1-2.439-2.67,2.43,2.43,0,0,1,2.423-2.653,2.093,2.093,0,0,1,2.225,1.912l1.78-.412a3.837,3.837,0,0,0-4.021-3.131A4.132,4.132,0,0,0,10.546-6.534Zm18.03-4.054H25.989l-3.675,3.1h-.2V-14H20.3V-2.463h1.813V-5.183L23.582-6.4l2.769,3.939h2.126L24.884-7.49Z" transform="translate(131.901 500.282)" fill="#fff"/><g transform="translate(82.085 356.082)"><g transform="translate(84.191) rotate(90)" fill="none" stroke="#fff" stroke-width="3"><circle cx="42.096" cy="42.096" r="42.096" stroke="none"/><circle cx="42.096" cy="42.096" r="40.596" fill="none"/></g><g transform="translate(23.16 23.825)"><path d="M1,12.761H38.663V2H1Zm2.391-8.37h32.88V10.37H3.391Z" transform="translate(-1 -2)" fill="#fff"/><path d="M1,56.761H38.663V46H1Zm2.391-8.37h32.88V54.37H3.391Z" transform="translate(-1 -32.848)" fill="#fff"/><path d="M1,101.761H38.663V91H1Zm2.391-8.37h32.88V99.37H3.391Z" transform="translate(-1 -64.397)" fill="#fff"/><rect width="2.156" height="2.156" transform="translate(4.311 4.311)" fill="#fff"/><rect width="2.874" height="2.156" transform="translate(8.622 4.311)" fill="#fff"/><rect width="2.156" height="2.156" transform="translate(13.652 4.311)" fill="#fff"/><rect width="2.156" height="2.156" transform="translate(4.311 17.245)" fill="#fff"/><rect width="2.874" height="2.156" transform="translate(8.622 17.245)" fill="#fff"/><rect width="2.156" height="2.156" transform="translate(13.652 17.245)" fill="#fff"/><rect width="2.156" height="2.156" transform="translate(4.311 30.897)" fill="#fff"/><rect width="2.874" height="2.156" transform="translate(8.622 30.897)" fill="#fff"/><rect width="2.156" height="2.156" transform="translate(13.652 30.897)" fill="#fff"/></g></g><line x1="142.561" transform="translate(164.398 399.101)" fill="none" stroke="#fff" stroke-width="1"/><g transform="translate(167.505 193.626)"><ellipse cx="4.129" cy="4.128" rx="4.129" ry="4.128" transform="translate(20.768 12.126)" fill="#fff"/><path d="M33.26,6.914A23.457,23.457,0,0,0,0,6.914M26.608,13.59a14.074,14.074,0,0,0-19.956,0" transform="translate(0 33.26) rotate(-90)" fill="none" stroke="#fff" stroke-linecap="square" stroke-width="4"/><path d="M33.26,6.914A23.457,23.457,0,0,0,0,6.914M26.608,13.59a14.074,14.074,0,0,0-19.956,0" transform="translate(49.443 0.175) rotate(90)" fill="none" stroke="#fff" stroke-linecap="square" stroke-width="4"/></g><path d="M.78-9.6V-7c0,3.033,1.813,4.7,4.648,4.7,2.917,0,4.433-1.648,4.433-4.2v-.313H7.949v.33A2.227,2.227,0,0,1,5.428-4.033,2.565,2.565,0,0,1,2.692-6.918V-9.686a2.612,2.612,0,0,1,2.736-2.884,2.257,2.257,0,0,1,2.522,2.456v.33H9.861v-.346c0-2.522-1.582-4.17-4.433-4.17A4.317,4.317,0,0,0,.78-9.6ZM11.2-8.665l1.516.857a2.459,2.459,0,0,1,2.373-1.5c1.22,0,1.9.626,1.9,1.566v.214l-3.049.313c-1.829.181-2.9,1.022-2.9,2.406,0,1.516,1.2,2.505,3.033,2.505a2.674,2.674,0,0,0,2.7-1.45H17v1.22h1.78V-7.692c0-1.928-1.417-3.2-3.626-3.2A4.412,4.412,0,0,0,11.2-8.665ZM12.91-4.89c0-.659.56-.939,1.417-1.022l2.653-.28v.132A2.248,2.248,0,0,1,14.443-3.8C13.454-3.8,12.91-4.231,12.91-4.89Zm9.608-5.768H20.755v8.125h1.813V-7.2a1.632,1.632,0,0,1,1.8-1.8h1.318v-1.7h-.857a1.9,1.9,0,0,0-2.077,1.286h-.231Zm6.18,0H26.935v8.125h1.813V-7.2a1.632,1.632,0,0,1,1.8-1.8h1.318v-1.7h-.857A1.9,1.9,0,0,0,28.93-9.406H28.7Zm3.955-2.423a1.323,1.323,0,0,0,1.368,1.318,1.309,1.309,0,0,0,1.351-1.318A1.3,1.3,0,0,0,34.022-14.4,1.313,1.313,0,0,0,32.654-13.082Zm2.274,2.423H33.116v8.125h1.813ZM36.494-6.67A4.162,4.162,0,0,0,40.714-2.3a4.032,4.032,0,0,0,3.642-2.044l-1.5-.857a2.293,2.293,0,0,1-2.175,1.335,2.2,2.2,0,0,1-2.307-2.143h6.147V-6.8a3.838,3.838,0,0,0-3.955-4.1A4.029,4.029,0,0,0,36.494-6.67Zm1.879-.692A2.041,2.041,0,0,1,40.549-9.34a1.966,1.966,0,0,1,2.11,1.978Zm9.411-3.3H46.02v8.125h1.813V-7.2a1.632,1.632,0,0,1,1.8-1.8h1.318v-1.7h-.857a1.9,1.9,0,0,0-2.077,1.286h-.231Zm4.038,2.225c0,1.533,1.121,2.192,3.181,2.456l.478.066c.873.115,1.813.214,1.813.939,0,.709-.791,1.154-1.8,1.154a3,3,0,0,1-2.769-1.8l-1.516.89A4.688,4.688,0,0,0,55.448-2.3c2.126,0,3.626-1.121,3.626-2.719s-1.2-2.159-3.428-2.439l-.478-.066c-.873-.115-1.566-.231-1.566-.923,0-.593.544-.956,1.384-.956a3.447,3.447,0,0,1,2.686,1.5l1.318-1.005A5.1,5.1,0,0,0,55-10.89C53.239-10.89,51.822-9.95,51.822-8.434Z" transform="translate(162.201 254.282)" fill="#fff"/><g transform="translate(599.086 362.171)"><path d="M15.184,47.849a8.428,8.428,0,0,0,0-16.849,8.428,8.428,0,0,0,0,16.849Zm0-14.041a5.619,5.619,0,0,1,0,11.233,5.619,5.619,0,0,1,0-11.233Z" transform="translate(-7 2.491)" fill="#fff" stroke="#fff" stroke-width="2"/><path d="M37.007,52.7h2.728C39.735,34.118,25.049,19,7,19v2.808C23.546,21.808,37.007,35.665,37.007,52.7Z" transform="translate(-7 -2.358)" fill="#fff" stroke="#fff" stroke-width="2"/><path d="M53.107,58.34H55.9C55.9,30.582,33.964,8,7,8v2.877C32.423,10.877,53.107,32.169,53.107,58.34Z" transform="translate(-7 -8)" fill="#fff" stroke="#fff" stroke-width="2"/></g><path d="M-38.386-14V-2.463h1.912V-14Zm4.021,3.412v8.125h1.813V-6.682A2.145,2.145,0,0,1-30.31-9.138a1.772,1.772,0,0,1,1.961,1.961v4.714h1.813V-7.342A3.088,3.088,0,0,0-29.7-10.72a2.652,2.652,0,0,0-2.653,1.467h-.231v-1.335Zm8.751,0v1.566h2.159v5.076A1.428,1.428,0,0,0-21.97-2.463h2.175V-4.029h-1.4c-.3,0-.445-.148-.445-.478V-9.023h2.307v-1.566h-2.307v-2.67h-1.813v2.67ZM-18.427-6.6a4.162,4.162,0,0,0,4.219,4.367,4.032,4.032,0,0,0,3.642-2.044l-1.5-.857A2.293,2.293,0,0,1-14.241-3.8a2.2,2.2,0,0,1-2.307-2.143H-10.4v-.791a3.838,3.838,0,0,0-3.955-4.1A4.029,4.029,0,0,0-18.427-6.6Zm1.879-.692A2.041,2.041,0,0,1-14.373-9.27a1.966,1.966,0,0,1,2.11,1.978Zm9.411-3.3H-8.9v8.125h1.813V-7.127a1.632,1.632,0,0,1,1.8-1.8h1.318v-1.7H-4.83A1.9,1.9,0,0,0-6.907-9.336h-.231Zm4.417,0v8.125H-.908V-6.682A2.145,2.145,0,0,1,1.334-9.138,1.772,1.772,0,0,1,3.295-7.177v4.714H5.108V-7.342A3.088,3.088,0,0,0,1.944-10.72,2.652,2.652,0,0,0-.71-9.253H-.941v-1.335ZM6.575-6.6a4.162,4.162,0,0,0,4.219,4.367,4.032,4.032,0,0,0,3.642-2.044l-1.5-.857A2.293,2.293,0,0,1,10.761-3.8,2.2,2.2,0,0,1,8.454-5.941H14.6v-.791a3.838,3.838,0,0,0-3.955-4.1A4.029,4.029,0,0,0,6.575-6.6Zm1.879-.692A2.041,2.041,0,0,1,10.629-9.27a1.966,1.966,0,0,1,2.11,1.978Zm6.675-3.3v1.566h2.159v5.076a1.428,1.428,0,0,0,1.483,1.483h2.175V-4.029h-1.4c-.3,0-.445-.148-.445-.478V-9.023h2.307v-1.566H19.1v-2.67H17.287v2.67ZM-49.98,11.529A4.162,4.162,0,0,0-45.761,15.9a4.032,4.032,0,0,0,3.642-2.044l-1.5-.857a2.293,2.293,0,0,1-2.175,1.335A2.2,2.2,0,0,1-48.1,12.188h6.147V11.4a3.838,3.838,0,0,0-3.955-4.1A4.029,4.029,0,0,0-49.98,11.529Zm1.879-.692a2.041,2.041,0,0,1,2.175-1.978,1.966,1.966,0,0,1,2.11,1.978Zm6.691-3.3,2.95,3.988-3.033,4.137h2.159l2.093-3h.2l2.093,3h2.159l-3.033-4.137,2.95-3.988H-35l-2.044,2.884h-.2l-2.044-2.884Zm9.147,4.054a4.149,4.149,0,0,0,4.236,4.3,3.866,3.866,0,0,0,4.021-3.131l-1.78-.412a2.114,2.114,0,0,1-2.225,1.912A2.429,2.429,0,0,1-30.45,11.6a2.43,2.43,0,0,1,2.423-2.653A2.093,2.093,0,0,1-25.8,10.853l1.78-.412A3.837,3.837,0,0,0-28.044,7.31,4.132,4.132,0,0,0-32.263,11.6Zm9.757-7.466V15.666h1.813V11.447a2.145,2.145,0,0,1,2.241-2.456,1.772,1.772,0,0,1,1.961,1.961v4.714h1.813V10.787a3.088,3.088,0,0,0-3.164-3.379A2.652,2.652,0,0,0-20.5,8.876h-.2V4.129Zm9.543,5.406,1.516.857a2.459,2.459,0,0,1,2.373-1.5c1.22,0,1.9.626,1.9,1.566v.214l-3.049.313c-1.829.181-2.9,1.022-2.9,2.406,0,1.516,1.2,2.505,3.033,2.505a2.674,2.674,0,0,0,2.7-1.45h.231v1.22h1.78V10.507c0-1.928-1.417-3.2-3.626-3.2A4.412,4.412,0,0,0-12.964,9.535Zm1.714,3.774c0-.659.56-.939,1.417-1.022l2.653-.28v.132A2.248,2.248,0,0,1-9.717,14.4C-10.706,14.4-11.25,13.968-11.25,13.309ZM-3.4,7.541v8.125h1.813V11.447A2.145,2.145,0,0,1,.65,8.991a1.772,1.772,0,0,1,1.961,1.961v4.714H4.424V10.787A3.088,3.088,0,0,0,1.26,7.409,2.652,2.652,0,0,0-1.394,8.876h-.231V7.541Zm15.987,0v1.2h-.231A2.876,2.876,0,0,0,9.665,7.31a3.908,3.908,0,0,0-3.774,4.17,3.913,3.913,0,0,0,3.774,4.186,2.855,2.855,0,0,0,2.686-1.45h.2v1.1a2.14,2.14,0,0,1-2.39,2.291,2.832,2.832,0,0,1-2.588-1.632l-1.566.939a4.745,4.745,0,0,0,4.269,2.274c2.505,0,4.087-1.582,4.087-3.791V7.541Zm-2.439,6.51A2.339,2.339,0,0,1,7.7,11.48a2.333,2.333,0,0,1,2.439-2.555,2.318,2.318,0,0,1,2.406,2.555A2.323,2.323,0,0,1,10.143,14.051Zm5.785-2.522A4.162,4.162,0,0,0,20.147,15.9a4.032,4.032,0,0,0,3.642-2.044L22.289,13a2.293,2.293,0,0,1-2.175,1.335,2.2,2.2,0,0,1-2.307-2.143h6.147V11.4A3.838,3.838,0,0,0,20,7.294,4.029,4.029,0,0,0,15.928,11.529Zm1.879-.692a2.041,2.041,0,0,1,2.175-1.978,1.966,1.966,0,0,1,2.11,1.978Zm7.4-1.071c0,1.533,1.121,2.192,3.181,2.456l.478.066c.873.115,1.813.214,1.813.939,0,.709-.791,1.154-1.8,1.154a3,3,0,0,1-2.769-1.8l-1.516.89A4.688,4.688,0,0,0,28.832,15.9c2.126,0,3.626-1.121,3.626-2.719s-1.2-2.159-3.428-2.439l-.478-.066c-.873-.115-1.566-.231-1.566-.923,0-.593.544-.956,1.384-.956a3.447,3.447,0,0,1,2.686,1.5l1.318-1.005A5.1,5.1,0,0,0,28.387,7.31C26.624,7.31,25.207,8.249,25.207,9.766Z" transform="translate(632.744 438.859)" fill="#fff"/><g transform="translate(350.87 609.411)"><path d="M42.2,23.687c0-.069,0-.138,0-.206a6.189,6.189,0,0,0-5.515-6.144,13.384,13.384,0,0,0-26.417,3.054c0,.4.021.8.062,1.215a11.326,11.326,0,0,0,2,22.476H40.142a10.3,10.3,0,0,0,2.056-20.4ZM40.142,42.022H12.331a9.266,9.266,0,0,1-.755-18.5L12.7,23.43l-.192-1.11A11.268,11.268,0,0,1,23.661,9.06a11.281,11.281,0,0,1,11.162,9.458l.149.9.909-.037a.518.518,0,0,0,.141-.018,4.124,4.124,0,0,1,4.12,4.12,4.078,4.078,0,0,1-.094.86l-.242,1.129,1.149.112a8.24,8.24,0,0,1-.813,16.44Z" transform="translate(-1 -7)" fill="#fff" stroke="#fff" stroke-width="2"/></g><path d="M-28.528-9.583v2.6c0,3.033,1.813,4.7,4.648,4.7,2.917,0,4.433-1.648,4.433-4.2V-6.8h-1.912v.33a2.227,2.227,0,0,1-2.522,2.456A2.565,2.565,0,0,1-26.617-6.9V-9.665a2.612,2.612,0,0,1,2.736-2.884,2.257,2.257,0,0,1,2.522,2.456v.33h1.912v-.346c0-2.522-1.582-4.17-4.433-4.17A4.317,4.317,0,0,0-28.528-9.583Zm12.493-4.466h-1.813V-2.513h1.813Zm1.566,7.466a4.127,4.127,0,0,0,4.219,4.3,4.127,4.127,0,0,0,4.219-4.3,4.113,4.113,0,0,0-4.219-4.285A4.113,4.113,0,0,0-14.47-6.583Zm1.813,0a2.383,2.383,0,0,1,2.406-2.653A2.383,2.383,0,0,1-7.845-6.583a2.4,2.4,0,0,1-2.406,2.67A2.4,2.4,0,0,1-12.657-6.583ZM3.264-2.513v-8.125H1.451v4.219A2.145,2.145,0,0,1-.791-3.963,1.785,1.785,0,0,1-2.752-5.941v-4.7H-4.565v4.862A3.111,3.111,0,0,0-1.4-2.381,2.644,2.644,0,0,0,1.253-3.864h.231v1.351ZM13.3-14.049H11.488v4.615h-.2A2.876,2.876,0,0,0,8.6-10.868c-2.077,0-3.774,1.78-3.774,4.285s1.7,4.3,3.774,4.3a2.855,2.855,0,0,0,2.686-1.45h.231v1.22H13.3Zm-4.219,4.8a2.38,2.38,0,0,1,2.406,2.67A2.394,2.394,0,0,1,9.081-3.9,2.409,2.409,0,0,1,6.642-6.583,2.4,2.4,0,0,1,9.081-9.253ZM-42.15,18.913h1.813V14.4h.2a2.874,2.874,0,0,0,2.686,1.45c2.093,0,3.774-1.8,3.774-4.3s-1.681-4.285-3.774-4.285a2.9,2.9,0,0,0-2.686,1.434h-.231v-1.2h-1.78Zm4.219-4.681a2.394,2.394,0,0,1-2.406-2.686,2.38,2.38,0,0,1,2.406-2.67,2.4,2.4,0,0,1,2.439,2.67A2.409,2.409,0,0,1-37.931,14.232Zm7.581-6.741h-1.763v8.125H-30.3V10.952a1.632,1.632,0,0,1,1.8-1.8h1.318v-1.7h-.857a1.9,1.9,0,0,0-2.077,1.286h-.231Zm3.576,4.054a4.127,4.127,0,0,0,4.219,4.3,4.127,4.127,0,0,0,4.219-4.3,4.113,4.113,0,0,0-4.219-4.285A4.113,4.113,0,0,0-26.773,11.546Zm1.813,0a2.383,2.383,0,0,1,2.406-2.653,2.383,2.383,0,0,1,2.406,2.653,2.4,2.4,0,0,1-2.406,2.67A2.4,2.4,0,0,1-24.96,11.546Zm7.169-4.054,2.917,8.125h2.637L-9.32,7.491h-1.961l-2.175,6.477h-.2L-15.83,7.491Zm9.229-2.423A1.323,1.323,0,0,0-7.194,6.387,1.309,1.309,0,0,0-5.842,5.069,1.3,1.3,0,0,0-7.194,3.75,1.313,1.313,0,0,0-8.562,5.069Zm2.274,2.423H-8.1v8.125h1.813ZM3.75,4.08H1.937V8.695h-.2A2.876,2.876,0,0,0-.947,7.261c-2.077,0-3.774,1.78-3.774,4.285s1.7,4.3,3.774,4.3A2.855,2.855,0,0,0,1.739,14.4H1.97v1.22H3.75Zm-4.219,4.8a2.38,2.38,0,0,1,2.406,2.67A2.394,2.394,0,0,1-.469,14.232a2.409,2.409,0,0,1-2.439-2.686A2.4,2.4,0,0,1-.469,8.876Zm5.785,2.6a4.162,4.162,0,0,0,4.219,4.367A4.032,4.032,0,0,0,13.177,13.8l-1.5-.857A2.293,2.293,0,0,1,9.5,14.282a2.2,2.2,0,0,1-2.307-2.143h6.147v-.791a3.838,3.838,0,0,0-3.955-4.1A4.029,4.029,0,0,0,5.315,11.48Zm1.879-.692A2.041,2.041,0,0,1,9.37,8.81a1.966,1.966,0,0,1,2.11,1.978Zm9.411-3.3H14.841v8.125h1.813V10.952a1.632,1.632,0,0,1,1.8-1.8h1.318v-1.7h-.857a1.9,1.9,0,0,0-2.077,1.286H16.6Zm4.038,2.225c0,1.533,1.121,2.192,3.181,2.456l.478.066c.873.115,1.813.214,1.813.939,0,.709-.791,1.154-1.8,1.154a3,3,0,0,1-2.769-1.8l-1.516.89a4.688,4.688,0,0,0,4.236,2.423c2.126,0,3.626-1.121,3.626-2.719s-1.2-2.159-3.428-2.439l-.478-.066c-.873-.115-1.566-.231-1.566-.923,0-.593.544-.956,1.384-.956a3.447,3.447,0,0,1,2.686,1.5l1.318-1.005a5.1,5.1,0,0,0-3.988-1.978C22.06,7.261,20.643,8.2,20.643,9.716Z" transform="translate(383.184 673.703)" fill="#fff"/><g transform="translate(541.607 177.495)"><path d="M16.481,0V16.481H0V49.443H49.443V0Zm0,46.147H3.3V19.777H16.481Zm29.666,0H19.777V3.3h26.37Z" fill="#fff" stroke="#fff" stroke-width="0.5"/><rect width="3.296" height="3.296" transform="translate(26.37 11.537)" fill="#fff" stroke="#fff" stroke-width="0.5"/><rect width="3.296" height="3.296" transform="translate(36.258 11.537)" fill="#fff" stroke="#fff" stroke-width="0.5"/><rect width="3.296" height="3.296" transform="translate(36.258 21.425)" fill="#fff" stroke="#fff" stroke-width="0.5"/><rect width="3.296" height="3.296" transform="translate(26.37 21.425)" fill="#fff" stroke="#fff" stroke-width="0.5"/></g><path d="M-51.49-14.07V-2.534h7.565V-4.281h-5.653V-7.461h5.109V-9.208h-5.109v-3.115h5.571V-14.07Zm9.163,3.412v8.125h1.813V-6.753a2.145,2.145,0,0,1,2.241-2.456,1.772,1.772,0,0,1,1.961,1.961v4.714H-34.5V-7.412a3.088,3.088,0,0,0-3.164-3.379,2.652,2.652,0,0,0-2.653,1.467h-.231v-1.335Zm8.751,0v1.566h2.159v5.076a1.428,1.428,0,0,0,1.483,1.483h2.175V-4.1h-1.4c-.3,0-.445-.148-.445-.478V-9.093H-27.3v-1.566H-29.6v-2.67h-1.813v2.67Zm7.186,3.988A4.162,4.162,0,0,0-22.17-2.3a4.032,4.032,0,0,0,3.642-2.044l-1.5-.857A2.293,2.293,0,0,1-22.2-3.869a2.2,2.2,0,0,1-2.307-2.143h6.147V-6.8a3.838,3.838,0,0,0-3.955-4.1A4.029,4.029,0,0,0-26.389-6.67Zm1.879-.692A2.041,2.041,0,0,1-22.335-9.34a1.966,1.966,0,0,1,2.11,1.978Zm9.411-3.3h-1.763v8.125h1.813V-7.2a1.632,1.632,0,0,1,1.8-1.8h1.318v-1.7h-.857a1.9,1.9,0,0,0-2.077,1.286H-15.1ZM-10.683.763H-8.87V-3.753h.2A2.874,2.874,0,0,0-5.986-2.3c2.093,0,3.774-1.8,3.774-4.3S-3.893-10.89-5.986-10.89A2.9,2.9,0,0,0-8.672-9.456H-8.9v-1.2h-1.78Zm4.219-4.681A2.394,2.394,0,0,1-8.87-6.6a2.38,2.38,0,0,1,2.406-2.67A2.4,2.4,0,0,1-4.025-6.6,2.409,2.409,0,0,1-6.464-3.918Zm7.581-6.741H-.646v8.125H1.167V-7.2a1.632,1.632,0,0,1,1.8-1.8H4.282v-1.7H3.425A1.9,1.9,0,0,0,1.348-9.406H1.117Zm3.955-2.423a1.323,1.323,0,0,0,1.368,1.318,1.309,1.309,0,0,0,1.351-1.318A1.3,1.3,0,0,0,6.441-14.4,1.313,1.313,0,0,0,5.073-13.082Zm2.274,2.423H5.534v8.125H7.347ZM9.21-8.434c0,1.533,1.121,2.192,3.181,2.456l.478.066c.873.115,1.813.214,1.813.939,0,.709-.791,1.154-1.8,1.154a3,3,0,0,1-2.769-1.8L8.6-4.726A4.688,4.688,0,0,0,12.836-2.3c2.126,0,3.626-1.121,3.626-2.719s-1.2-2.159-3.428-2.439l-.478-.066c-.873-.115-1.566-.231-1.566-.923,0-.593.544-.956,1.384-.956a3.447,3.447,0,0,1,2.686,1.5l1.318-1.005a5.1,5.1,0,0,0-3.988-1.978C10.627-10.89,9.21-9.95,9.21-8.434ZM17.45-6.67A4.162,4.162,0,0,0,21.669-2.3a4.032,4.032,0,0,0,3.642-2.044l-1.5-.857a2.293,2.293,0,0,1-2.175,1.335,2.2,2.2,0,0,1-2.307-2.143h6.147V-6.8a3.838,3.838,0,0,0-3.955-4.1A4.029,4.029,0,0,0,17.45-6.67Zm1.879-.692A2.041,2.041,0,0,1,21.5-9.34a1.966,1.966,0,0,1,2.11,1.978Zm7.4-1.071c0,1.533,1.121,2.192,3.181,2.456l.478.066c.873.115,1.813.214,1.813.939,0,.709-.791,1.154-1.8,1.154a3,3,0,0,1-2.769-1.8l-1.516.89A4.688,4.688,0,0,0,30.355-2.3c2.126,0,3.626-1.121,3.626-2.719s-1.2-2.159-3.428-2.439l-.478-.066c-.873-.115-1.566-.231-1.566-.923,0-.593.544-.956,1.384-.956a3.447,3.447,0,0,1,2.686,1.5L33.9-8.912A5.1,5.1,0,0,0,29.91-10.89C28.146-10.89,26.729-9.95,26.729-8.434Z" transform="translate(575.183 254.282)" fill="#fff"/><g transform="translate(540.076 533.142)"><path d="M44.263,40.8h6.18V4H8.21v6.309H1V48.161H44.263ZM10.271,6.1H48.383V38.7h-4.12V10.309H10.271ZM8.21,12.412H42.2v7.976l-4.12-4.206L20.571,34.057l-10.3-10.515L3.06,30.9V12.412ZM42.2,46.058H3.06V33.876l7.21-7.36,10.3,10.515L38.082,19.156l4.12,4.206v22.7Z" transform="translate(-1 -4)" fill="#fff" stroke="#fff" stroke-width="1"/><path d="M19.97,25.146A5.074,5.074,0,1,0,15,20.073,5.028,5.028,0,0,0,19.97,25.146Zm0-8.117a3.044,3.044,0,1,1-2.982,3.044A3.017,3.017,0,0,1,19.97,17.029Z" transform="translate(-0.446 -3.307)" fill="#fff" stroke="#fff" stroke-width="1"/></g><path d="M-37.659-9.583v2.6c0,3.033,1.813,4.7,4.648,4.7,2.917,0,4.433-1.648,4.433-4.2V-6.8H-30.49v.33a2.227,2.227,0,0,1-2.522,2.456A2.565,2.565,0,0,1-35.747-6.9V-9.665a2.612,2.612,0,0,1,2.736-2.884,2.257,2.257,0,0,1,2.522,2.456v.33h1.912v-.346c0-2.522-1.582-4.17-4.433-4.17A4.317,4.317,0,0,0-37.659-9.583Zm10.169,3a4.127,4.127,0,0,0,4.219,4.3,4.127,4.127,0,0,0,4.219-4.3,4.113,4.113,0,0,0-4.219-4.285A4.113,4.113,0,0,0-27.49-6.583Zm1.813,0a2.383,2.383,0,0,1,2.406-2.653,2.383,2.383,0,0,1,2.406,2.653,2.4,2.4,0,0,1-2.406,2.67A2.4,2.4,0,0,1-25.677-6.583Zm8.191-4.054v8.125h1.813V-6.732a2.145,2.145,0,0,1,2.241-2.456,1.772,1.772,0,0,1,1.961,1.961v4.714h1.813V-7.391a3.088,3.088,0,0,0-3.164-3.379A2.652,2.652,0,0,0-15.475-9.3h-.231v-1.335Zm8.751,0v1.566h2.159V-4A1.428,1.428,0,0,0-5.092-2.513h2.175V-4.078h-1.4c-.3,0-.445-.148-.445-.478V-9.072h2.307v-1.566H-4.763v-2.67H-6.576v2.67Zm7.186,3.988A4.162,4.162,0,0,0,2.67-2.282,4.032,4.032,0,0,0,6.312-4.325l-1.5-.857A2.293,2.293,0,0,1,2.637-3.848,2.2,2.2,0,0,1,.33-5.99H6.477v-.791a3.838,3.838,0,0,0-3.955-4.1A4.029,4.029,0,0,0-1.549-6.649ZM.33-7.341A2.041,2.041,0,0,1,2.505-9.319a1.966,1.966,0,0,1,2.11,1.978Zm7.647-3.3v8.125H9.79V-6.732a2.145,2.145,0,0,1,2.241-2.456,1.772,1.772,0,0,1,1.961,1.961v4.714h1.813V-7.391a3.088,3.088,0,0,0-3.164-3.379A2.652,2.652,0,0,0,9.988-9.3H9.757v-1.335Zm8.751,0v1.566h2.159V-4a1.428,1.428,0,0,0,1.483,1.483h2.175V-4.078h-1.4c-.3,0-.445-.148-.445-.478V-9.072h2.307v-1.566H20.7v-2.67H18.888v2.67ZM-42.15,18.913h1.813V14.4h.2a2.874,2.874,0,0,0,2.686,1.45c2.093,0,3.774-1.8,3.774-4.3s-1.681-4.285-3.774-4.285a2.9,2.9,0,0,0-2.686,1.434h-.231v-1.2h-1.78Zm4.219-4.681a2.394,2.394,0,0,1-2.406-2.686,2.38,2.38,0,0,1,2.406-2.67,2.4,2.4,0,0,1,2.439,2.67A2.409,2.409,0,0,1-37.931,14.232Zm7.581-6.741h-1.763v8.125H-30.3V10.952a1.632,1.632,0,0,1,1.8-1.8h1.318v-1.7h-.857a1.9,1.9,0,0,0-2.077,1.286h-.231Zm3.576,4.054a4.127,4.127,0,0,0,4.219,4.3,4.127,4.127,0,0,0,4.219-4.3,4.113,4.113,0,0,0-4.219-4.285A4.113,4.113,0,0,0-26.773,11.546Zm1.813,0a2.383,2.383,0,0,1,2.406-2.653,2.383,2.383,0,0,1,2.406,2.653,2.4,2.4,0,0,1-2.406,2.67A2.4,2.4,0,0,1-24.96,11.546Zm7.169-4.054,2.917,8.125h2.637L-9.32,7.491h-1.961l-2.175,6.477h-.2L-15.83,7.491Zm9.229-2.423A1.323,1.323,0,0,0-7.194,6.387,1.309,1.309,0,0,0-5.842,5.069,1.3,1.3,0,0,0-7.194,3.75,1.313,1.313,0,0,0-8.562,5.069Zm2.274,2.423H-8.1v8.125h1.813ZM3.75,4.08H1.937V8.695h-.2A2.876,2.876,0,0,0-.947,7.261c-2.077,0-3.774,1.78-3.774,4.285s1.7,4.3,3.774,4.3A2.855,2.855,0,0,0,1.739,14.4H1.97v1.22H3.75Zm-4.219,4.8a2.38,2.38,0,0,1,2.406,2.67A2.394,2.394,0,0,1-.469,14.232a2.409,2.409,0,0,1-2.439-2.686A2.4,2.4,0,0,1-.469,8.876Zm5.785,2.6a4.162,4.162,0,0,0,4.219,4.367A4.032,4.032,0,0,0,13.177,13.8l-1.5-.857A2.293,2.293,0,0,1,9.5,14.282a2.2,2.2,0,0,1-2.307-2.143h6.147v-.791a3.838,3.838,0,0,0-3.955-4.1A4.029,4.029,0,0,0,5.315,11.48Zm1.879-.692A2.041,2.041,0,0,1,9.37,8.81a1.966,1.966,0,0,1,2.11,1.978Zm9.411-3.3H14.841v8.125h1.813V10.952a1.632,1.632,0,0,1,1.8-1.8h1.318v-1.7h-.857a1.9,1.9,0,0,0-2.077,1.286H16.6Zm4.038,2.225c0,1.533,1.121,2.192,3.181,2.456l.478.066c.873.115,1.813.214,1.813.939,0,.709-.791,1.154-1.8,1.154a3,3,0,0,1-2.769-1.8l-1.516.89a4.688,4.688,0,0,0,4.236,2.423c2.126,0,3.626-1.121,3.626-2.719s-1.2-2.159-3.428-2.439l-.478-.066c-.873-.115-1.566-.231-1.566-.923,0-.593.544-.956,1.384-.956a3.447,3.447,0,0,1,2.686,1.5l1.318-1.005a5.1,5.1,0,0,0-3.988-1.978C22.06,7.261,20.643,8.2,20.643,9.716Z" transform="translate(571.892 604.483)" fill="#fff"/><g transform="translate(170.656 528.245)"><g transform="translate(0 0)"><path d="M59.3,55.608a11.284,11.284,0,0,0-3.992.729l-4.1-7.113a11.273,11.273,0,1,0-12.845,0l-4.1,7.113a11.27,11.27,0,1,0,7.222,11.648h6.613A11.268,11.268,0,1,0,59.3,55.608ZM35.032,39.968a9.755,9.755,0,1,1,9.745,9.745,9.878,9.878,0,0,1-.99-.054,9.743,9.743,0,0,1-8.755-9.691Zm4.622,10.039c.109.054.207.109.315.152.033.011.065.033.1.044.076.033.152.076.228.109a1.283,1.283,0,0,1,.12.054c.065.033.141.054.207.087.043.022.087.033.131.054.065.022.141.054.207.076.043.011.087.033.131.044.065.022.141.043.207.065.044.011.087.033.131.043l.228.065.12.033c.109.033.207.054.315.076.011,0,.022.011.033.011.12.033.228.054.348.076.033.011.076.011.109.022.087.011.163.033.25.044.044.011.087.011.131.022.076.011.152.022.218.033.044.011.1.011.141.022a1.472,1.472,0,0,0,.218.022c.044,0,.1.011.141.011.076.011.152.011.218.022.043,0,.087.011.141.011.076,0,.163.011.239.011h.12c.12,0,.239.011.359.011s.239,0,.359-.011h.12c.076,0,.163-.011.239-.011.044,0,.087-.011.141-.011.076-.011.152-.011.218-.022.044,0,.1-.011.141-.011a1.475,1.475,0,0,1,.218-.022c.044-.011.1-.011.141-.022.076-.011.152-.022.218-.033.044-.011.087-.011.131-.022.076-.011.163-.033.239-.044.033-.011.076-.011.109-.022.12-.022.228-.054.348-.076.011,0,.022-.011.033-.011.109-.022.207-.054.3-.076l.12-.033.228-.065c.044-.011.087-.033.131-.043.065-.022.141-.044.207-.065.044-.011.087-.033.141-.044a1.453,1.453,0,0,0,.2-.076c.044-.022.087-.033.141-.054a1.674,1.674,0,0,0,.207-.087c.043-.022.087-.033.131-.054l.228-.1c.033-.011.065-.033.1-.043.109-.054.207-.1.315-.152l4.024,6.961c-.109.065-.228.12-.337.185l-.1.065c-.076.044-.152.1-.228.141-.044.033-.087.054-.131.087l-.2.131-.131.1c-.065.044-.12.087-.185.131a1.593,1.593,0,0,1-.141.1c-.054.044-.12.087-.174.131s-.087.076-.131.109a1.889,1.889,0,0,0-.163.141c-.044.033-.087.076-.131.109s-.109.1-.163.141a1.24,1.24,0,0,0-.12.12c-.054.054-.109.1-.163.152-.043.033-.076.076-.12.109-.054.054-.109.12-.163.174l-.1.1c-.087.087-.163.185-.25.283a.288.288,0,0,0-.054.065c-.065.076-.131.152-.185.228-.033.044-.065.076-.1.12-.044.065-.1.12-.141.185l-.1.131c-.044.054-.087.12-.131.174s-.065.1-.1.141-.076.12-.12.174-.065.1-.1.141-.076.12-.109.174-.054.1-.087.152a1.641,1.641,0,0,1-.109.185c-.033.054-.054.1-.087.152l-.1.2c-.022.054-.054.1-.076.152s-.065.141-.1.207c-.022.044-.044.087-.065.141-.033.087-.076.163-.109.25-.011.033-.033.065-.044.1-.044.12-.1.228-.141.348-.011.044-.033.076-.043.12a2.274,2.274,0,0,0-.087.25.7.7,0,0,0-.044.141c-.022.076-.044.141-.065.218-.011.054-.033.109-.043.152a1.587,1.587,0,0,0-.054.218c-.011.054-.033.109-.044.163-.022.076-.033.141-.054.218l-.033.163c-.011.076-.033.141-.044.218l-.033.163c-.011.076-.022.152-.033.218a.84.84,0,0,0-.022.163l-.033.228c-.011.054-.011.1-.022.152a2.11,2.11,0,0,0-.022.261c0,.044-.011.087-.011.131-.011.131-.022.261-.022.392H41.481c0-.131-.011-.261-.022-.392,0-.044-.011-.087-.011-.131-.011-.087-.011-.174-.022-.261-.011-.054-.011-.1-.022-.152l-.033-.228a.84.84,0,0,1-.022-.163c-.011-.076-.022-.152-.033-.218l-.033-.163c-.011-.076-.033-.141-.044-.218l-.033-.163c-.022-.076-.033-.141-.054-.218a.906.906,0,0,0-.043-.163c-.022-.076-.044-.141-.065-.218-.011-.054-.033-.109-.044-.152-.022-.076-.043-.152-.065-.218-.011-.044-.033-.1-.044-.141-.033-.087-.054-.163-.087-.25a.454.454,0,0,0-.044-.109,3.322,3.322,0,0,0-.141-.348.219.219,0,0,0-.044-.087c-.033-.087-.076-.174-.109-.261l-.065-.131c-.033-.065-.065-.141-.1-.207-.022-.044-.054-.1-.076-.141l-.1-.2c-.022-.043-.054-.1-.076-.141-.033-.065-.076-.131-.109-.185s-.054-.1-.087-.141c-.033-.065-.076-.12-.109-.185a.994.994,0,0,1-.087-.141c-.044-.065-.076-.12-.12-.185l-.1-.131c-.044-.065-.087-.12-.131-.185l-.1-.131c-.054-.065-.1-.131-.152-.2-.033-.033-.054-.076-.087-.109a2.388,2.388,0,0,0-.218-.25.15.15,0,0,1-.033-.043c-.087-.1-.163-.2-.25-.283l-.087-.087c-.065-.065-.12-.131-.185-.185l-.109-.109c-.054-.054-.109-.109-.174-.163-.044-.033-.076-.076-.12-.109-.054-.054-.109-.1-.174-.152a1.19,1.19,0,0,1-.12-.109l-.174-.141-.131-.1-.174-.141-.131-.1a1.187,1.187,0,0,1-.185-.141.909.909,0,0,0-.131-.087,2.328,2.328,0,0,1-.207-.141c-.044-.022-.076-.054-.12-.076-.076-.054-.163-.1-.25-.152-.033-.022-.054-.033-.087-.054A3.341,3.341,0,0,0,35.586,57Zm-9.4,26.614A9.745,9.745,0,1,1,40,66.875V67.2A9.705,9.705,0,0,1,30.257,76.62Zm29.039,0a9.707,9.707,0,0,1-9.745-9.43v-.315A9.745,9.745,0,1,1,59.3,76.62Z" transform="translate(-19 -28.7)" fill="#fff" stroke="#fff" stroke-width="2"/></g></g><path d="M-39.84-14.07V-2.534h1.912V-7.445h5.043V-9.192h-5.043v-3.131h5.356V-14.07Zm8.191.989a1.323,1.323,0,0,0,1.368,1.318,1.309,1.309,0,0,0,1.351-1.318A1.3,1.3,0,0,0-30.281-14.4,1.313,1.313,0,0,0-31.649-13.082Zm2.274,2.423h-1.813v8.125h1.813Zm2.077,0v8.125h1.813V-6.753a2.145,2.145,0,0,1,2.241-2.456,1.772,1.772,0,0,1,1.961,1.961v4.714h1.813V-7.412a3.088,3.088,0,0,0-3.164-3.379,2.652,2.652,0,0,0-2.653,1.467h-.231v-1.335Zm9.543,1.994,1.516.857a2.459,2.459,0,0,1,2.373-1.5c1.22,0,1.9.626,1.9,1.566v.214l-3.049.313c-1.829.181-2.9,1.022-2.9,2.406,0,1.516,1.2,2.505,3.033,2.505a2.674,2.674,0,0,0,2.7-1.45h.231v1.22h1.78V-7.692c0-1.928-1.417-3.2-3.626-3.2A4.412,4.412,0,0,0-17.755-8.665Zm1.714,3.774c0-.659.56-.939,1.417-1.022l2.653-.28v.132A2.248,2.248,0,0,1-14.509-3.8C-15.5-3.8-16.041-4.231-16.041-4.89ZM-8.2-10.659v8.125h1.813V-6.753A2.145,2.145,0,0,1-4.142-9.208,1.772,1.772,0,0,1-2.181-7.247v4.714H-.368V-7.412a3.088,3.088,0,0,0-3.164-3.379A2.652,2.652,0,0,0-6.186-9.324h-.231v-1.335ZM1.1-6.6A4.149,4.149,0,0,0,5.335-2.3,3.866,3.866,0,0,0,9.356-5.434l-1.78-.412A2.114,2.114,0,0,1,5.351-3.935,2.429,2.429,0,0,1,2.912-6.6,2.43,2.43,0,0,1,5.335-9.258,2.093,2.093,0,0,1,7.559-7.346l1.78-.412A3.837,3.837,0,0,0,5.318-10.89,4.132,4.132,0,0,0,1.1-6.6Zm9.3-6.477a1.323,1.323,0,0,0,1.368,1.318,1.309,1.309,0,0,0,1.351-1.318A1.3,1.3,0,0,0,11.762-14.4,1.313,1.313,0,0,0,10.394-13.082Zm2.274,2.423H10.856v8.125h1.813Zm1.813,1.994L16-7.808a2.459,2.459,0,0,1,2.373-1.5c1.22,0,1.9.626,1.9,1.566v.214l-3.049.313c-1.829.181-2.9,1.022-2.9,2.406,0,1.516,1.2,2.505,3.033,2.505a2.674,2.674,0,0,0,2.7-1.45h.231v1.22h1.78V-7.692c0-1.928-1.417-3.2-3.626-3.2A4.412,4.412,0,0,0,14.482-8.665ZM16.2-4.89c0-.659.56-.939,1.417-1.022l2.653-.28v.132A2.248,2.248,0,0,1,17.728-3.8C16.739-3.8,16.2-4.231,16.2-4.89Zm9.658-9.18H24.041V-2.534h1.813ZM-38.044,9.7c0,1.533,1.121,2.192,3.181,2.456l.478.066c.873.115,1.813.214,1.813.939,0,.709-.791,1.154-1.8,1.154a3,3,0,0,1-2.769-1.8l-1.516.89a4.688,4.688,0,0,0,4.236,2.423c2.126,0,3.626-1.121,3.626-2.719s-1.2-2.159-3.428-2.439L-34.7,10.6c-.873-.115-1.566-.231-1.566-.923,0-.593.544-.956,1.384-.956a3.447,3.447,0,0,1,2.686,1.5l1.318-1.005A5.1,5.1,0,0,0-34.863,7.24C-36.626,7.24-38.044,8.179-38.044,9.7Zm8.241,1.763a4.162,4.162,0,0,0,4.219,4.367,4.032,4.032,0,0,0,3.642-2.044l-1.5-.857a2.293,2.293,0,0,1-2.175,1.335,2.2,2.2,0,0,1-2.307-2.143h6.147v-.791a3.838,3.838,0,0,0-3.955-4.1A4.029,4.029,0,0,0-29.8,11.459Zm1.879-.692a2.041,2.041,0,0,1,2.175-1.978,1.966,1.966,0,0,1,2.11,1.978Zm9.411-3.3h-1.763V15.6h1.813V10.931a1.632,1.632,0,0,1,1.8-1.8h1.318v-1.7h-.857a1.9,1.9,0,0,0-2.077,1.286h-.231Zm4.054,0,2.917,8.125h2.637L-5.988,7.47H-7.949l-2.175,6.477h-.2L-12.5,7.47ZM-5.23,5.048A1.323,1.323,0,0,0-3.862,6.366,1.309,1.309,0,0,0-2.51,5.048,1.3,1.3,0,0,0-3.862,3.729,1.313,1.313,0,0,0-5.23,5.048ZM-2.955,7.47H-4.768V15.6h1.813Zm1.566,4.054a4.149,4.149,0,0,0,4.236,4.3,3.866,3.866,0,0,0,4.021-3.131l-1.78-.412a2.114,2.114,0,0,1-2.225,1.912,2.429,2.429,0,0,1-2.439-2.67A2.43,2.43,0,0,1,2.846,8.871a2.093,2.093,0,0,1,2.225,1.912l1.78-.412A3.837,3.837,0,0,0,2.829,7.24,4.132,4.132,0,0,0-1.39,11.525Zm9.246-.066a4.162,4.162,0,0,0,4.219,4.367,4.032,4.032,0,0,0,3.642-2.044l-1.5-.857a2.293,2.293,0,0,1-2.175,1.335,2.2,2.2,0,0,1-2.307-2.143h6.147v-.791a3.838,3.838,0,0,0-3.955-4.1A4.029,4.029,0,0,0,7.856,11.459Zm1.879-.692A2.041,2.041,0,0,1,11.91,8.789a1.966,1.966,0,0,1,2.11,1.978Zm7.4-1.071c0,1.533,1.121,2.192,3.181,2.456l.478.066c.873.115,1.813.214,1.813.939,0,.709-.791,1.154-1.8,1.154a3,3,0,0,1-2.769-1.8l-1.516.89a4.688,4.688,0,0,0,4.236,2.423c2.126,0,3.626-1.121,3.626-2.719s-1.2-2.159-3.428-2.439l-.478-.066c-.873-.115-1.566-.231-1.566-.923,0-.593.544-.956,1.384-.956a3.447,3.447,0,0,1,2.686,1.5L24.3,9.217A5.1,5.1,0,0,0,20.316,7.24C18.552,7.24,17.135,8.179,17.135,9.7Z" transform="translate(203.073 603.74)" fill="#fff"/><g transform="translate(377.92 549.734) rotate(90)" fill="#fff" stroke="#fff" stroke-width="1"><circle cx="2.472" cy="2.472" r="2.472" stroke="none"/><circle cx="2.472" cy="2.472" r="1.972" fill="none"/></g><g transform="translate(264.2 293.454) rotate(90)" fill="#fff" stroke="#fff" stroke-width="1"><circle cx="2.472" cy="2.472" r="2.472" stroke="none"/><circle cx="2.472" cy="2.472" r="1.972" fill="none"/></g><g transform="translate(264.2 498.643) rotate(90)" fill="#fff" stroke="#fff" stroke-width="1"><circle cx="2.472" cy="2.472" r="2.472" stroke="none"/><circle cx="2.472" cy="2.472" r="1.972" fill="none"/></g><g transform="translate(491.639 294.278) rotate(90)" fill="#fff" stroke="#fff" stroke-width="1"><circle cx="2.472" cy="2.472" r="2.472" stroke="none"/><circle cx="2.472" cy="2.472" r="1.972" fill="none"/></g><g transform="translate(531.193 396.461) rotate(90)" fill="#fff" stroke="#fff" stroke-width="1"><circle cx="2.472" cy="2.472" r="2.472" stroke="none"/><circle cx="2.472" cy="2.472" r="1.972" fill="none"/></g><g transform="translate(491.639 498.643) rotate(90)" fill="#fff" stroke="#fff" stroke-width="1"><circle cx="2.472" cy="2.472" r="2.472" stroke="none"/><circle cx="2.472" cy="2.472" r="1.972" fill="none"/></g><g transform="translate(312.819 393.165) rotate(90)" fill="#fff" stroke="#fff" stroke-width="1"><circle cx="5.768" cy="5.768" r="5.768" stroke="none"/><circle cx="5.768" cy="5.768" r="5.268" fill="none"/></g><g transform="translate(354.342 361.193)"><path d="M16.751,38.253H12.272v-9.84H26.606v9.84H22.127V49H32.878V38.253H28.4v-9.84H42.732v9.84H38.253V49H49V38.253H44.525V26.591H28.4v-9.84h6.272V6H20.334V16.751h6.272v9.84H10.479V38.253H6V49H16.751Zm14.334,8.958H23.92V40.046h7.165Zm16.127,0H40.046V40.046h7.165ZM22.127,7.793H32.878v7.165H22.127ZM14.958,47.211H7.793V40.046h7.165Z" transform="translate(-6 -6)" fill="#fff" stroke="#fff" stroke-width="2"/></g><path d="M-27.37-9.583v2.6c0,3.033,1.813,4.7,4.648,4.7,2.917,0,4.433-1.648,4.433-4.2V-6.8H-20.2v.33a2.227,2.227,0,0,1-2.522,2.456A2.565,2.565,0,0,1-25.458-6.9V-9.665a2.612,2.612,0,0,1,2.736-2.884A2.257,2.257,0,0,1-20.2-10.094v.33h1.912v-.346c0-2.522-1.582-4.17-4.433-4.17A4.317,4.317,0,0,0-27.37-9.583Zm12.443-1.055H-16.69v8.125h1.813V-7.177a1.632,1.632,0,0,1,1.8-1.8h1.318v-1.7h-.857A1.9,1.9,0,0,0-14.7-9.385h-.231Zm3.576,4.054a4.127,4.127,0,0,0,4.219,4.3,4.127,4.127,0,0,0,4.219-4.3,4.113,4.113,0,0,0-4.219-4.285A4.113,4.113,0,0,0-11.351-6.583Zm1.813,0A2.383,2.383,0,0,1-7.131-9.237,2.383,2.383,0,0,1-4.725-6.583a2.4,2.4,0,0,1-2.406,2.67A2.4,2.4,0,0,1-9.538-6.583Zm7.944-1.829c0,1.533,1.121,2.192,3.181,2.456l.478.066c.873.115,1.813.214,1.813.939,0,.709-.791,1.154-1.8,1.154a3,3,0,0,1-2.769-1.8L-2.2-4.7A4.688,4.688,0,0,0,2.032-2.282C4.158-2.282,5.658-3.4,5.658-5S4.455-7.16,2.23-7.44l-.478-.066C.878-7.622.186-7.737.186-8.429c0-.593.544-.956,1.384-.956a3.447,3.447,0,0,1,2.686,1.5L5.575-8.891a5.1,5.1,0,0,0-3.988-1.978C-.176-10.868-1.594-9.929-1.594-8.413Zm8.405,0c0,1.533,1.121,2.192,3.181,2.456l.478.066c.873.115,1.813.214,1.813.939,0,.709-.791,1.154-1.8,1.154a3,3,0,0,1-2.769-1.8L6.2-4.7a4.688,4.688,0,0,0,4.236,2.423c2.126,0,3.626-1.121,3.626-2.719S12.86-7.16,10.635-7.44l-.478-.066c-.873-.115-1.566-.231-1.566-.923,0-.593.544-.956,1.384-.956a3.447,3.447,0,0,1,2.686,1.5l1.318-1.005a5.1,5.1,0,0,0-3.988-1.978C8.229-10.868,6.812-9.929,6.812-8.413ZM-38.33,8.546v2.6c0,3.033,1.813,4.7,4.648,4.7,2.917,0,4.433-1.648,4.433-4.2v-.313h-1.912v.33a2.227,2.227,0,0,1-2.522,2.456,2.565,2.565,0,0,1-2.736-2.884V8.464A2.612,2.612,0,0,1-33.682,5.58a2.257,2.257,0,0,1,2.522,2.456v.33h1.912V8.019c0-2.522-1.582-4.17-4.433-4.17A4.317,4.317,0,0,0-38.33,8.546Zm10.169,3a4.127,4.127,0,0,0,4.219,4.3,4.127,4.127,0,0,0,4.219-4.3,4.113,4.113,0,0,0-4.219-4.285A4.113,4.113,0,0,0-28.161,11.546Zm1.813,0a2.383,2.383,0,0,1,2.406-2.653,2.383,2.383,0,0,1,2.406,2.653,2.4,2.4,0,0,1-2.406,2.67A2.4,2.4,0,0,1-26.348,11.546Zm8.191-4.054v8.125h1.813V11.4A2.145,2.145,0,0,1-14.1,8.942,1.772,1.772,0,0,1-12.142,10.9v4.714h1.813V10.738A3.088,3.088,0,0,0-13.493,7.36a2.652,2.652,0,0,0-2.653,1.467h-.231V7.491Zm9.806,0v8.125h1.813V11.4A2.145,2.145,0,0,1-4.3,8.942,1.772,1.772,0,0,1-2.335,10.9v4.714H-.522V10.738A3.088,3.088,0,0,0-3.687,7.36,2.652,2.652,0,0,0-6.34,8.826h-.231V7.491Zm9.3,3.988a4.162,4.162,0,0,0,4.219,4.367A4.032,4.032,0,0,0,8.806,13.8l-1.5-.857a2.293,2.293,0,0,1-2.175,1.335,2.2,2.2,0,0,1-2.307-2.143H8.971v-.791a3.838,3.838,0,0,0-3.955-4.1A4.029,4.029,0,0,0,.944,11.48Zm1.879-.692A2.041,2.041,0,0,1,5,8.81a1.966,1.966,0,0,1,2.11,1.978Zm7.136.758a4.149,4.149,0,0,0,4.236,4.3,3.866,3.866,0,0,0,4.021-3.131l-1.78-.412a2.114,2.114,0,0,1-2.225,1.912,2.429,2.429,0,0,1-2.439-2.67A2.43,2.43,0,0,1,14.2,8.892,2.093,2.093,0,0,1,16.42,10.8l1.78-.412a3.837,3.837,0,0,0-4.021-3.131A4.132,4.132,0,0,0,9.959,11.546Zm8.784-4.054V9.057H20.9v5.076a1.428,1.428,0,0,0,1.483,1.483h2.175V14.051h-1.4c-.3,0-.445-.148-.445-.478V9.057h2.307V7.491H22.716V4.822H20.9v2.67Z" transform="translate(382.512 430.608)" fill="#fff"/><line y1="117.015" transform="translate(374.944 202.305)" fill="none" stroke="#fff" stroke-width="2"/><line y1="226.614" x2="97.238" transform="translate(411.202 100.946)" fill="none" stroke="#fff" stroke-width="2"/><line y1="80.757" x2="209.309" transform="translate(453.229 297.071)" fill="none" stroke="#fff" stroke-width="2"/><line x2="213.429" y2="93.118" transform="translate(449.108 433.863)" fill="none" stroke="#fff" stroke-width="2"/><g transform="translate(319.32 100.534)"><g transform="translate(112.895) rotate(90)"><circle cx="56.448" cy="56.448" r="56.448" fill="#263684"/><g fill="none" stroke="#7692ff" stroke-width="3"><circle cx="56.448" cy="56.448" r="56.448" stroke="none"/><circle cx="56.448" cy="56.448" r="54.948" fill="none"/></g></g><g transform="translate(28.43 26.782)"><path d="M20.215,48.645H14.293V35.634H33.244v13.01H27.322V62.86H41.537V48.645H35.615V35.634H54.567v13.01H48.645V62.86H62.86V48.645H56.938V33.225H35.615V20.215h8.293V6H24.952V20.215h8.293v13.01H11.922v15.42H6V62.86H20.215ZM39.166,60.489H29.693V51.015h9.473Zm21.322,0H51.015V51.015h9.473ZM27.322,8.371H41.537v9.473H27.322ZM17.844,60.489H8.371V51.015h9.473Z" transform="translate(-6 -6)" fill="#fff" stroke="#fff" stroke-width="2"/></g></g><g transform="translate(465.177 0)"><g transform="translate(112.895) rotate(90)"><circle cx="56.448" cy="56.448" r="56.448" fill="#263684"/><g fill="none" stroke="#7692ff" stroke-width="3"><circle cx="56.448" cy="56.448" r="56.448" stroke="none"/><circle cx="56.448" cy="56.448" r="54.948" fill="none"/></g></g><g transform="translate(26.782 26.782)"><path d="M30.666,1A29.666,29.666,0,1,0,60.332,30.666,29.7,29.7,0,0,0,30.666,1Zm2.472,2.59V6.669l-4.22,4.22H27.469l-5.86-5.86a27.046,27.046,0,0,1,9.057-1.556C31.5,3.472,32.323,3.515,33.138,3.59ZM3.472,30.666A27.046,27.046,0,0,1,8.745,14.6H19.029l2.984,2.984v5.157l-4.22,4.22L21.5,30.666l-2.472,2.472H10.3l3.461,8.653H24.485v6.9l-6.18,6.18A27.216,27.216,0,0,1,3.472,30.666ZM30.666,57.86a27.055,27.055,0,0,1-9.954-1.895l6.246-6.246v-10.4H15.434L13.95,35.61h6.1L25,30.666,21.29,26.958l3.2-3.2v-7.2l-4.434-4.433H10.8a27.325,27.325,0,0,1,8.334-6.078l7.314,7.314h3.5L35.61,7.692V3.931a27.023,27.023,0,0,1,9.143,3.482L35.61,16.557v10.4h6.18V41.066l8.449,8.449A27.108,27.108,0,0,1,30.666,57.86Zm21.21-10.2-7.613-7.613V24.485h-6.18v-6.9l8.759-8.759a27.141,27.141,0,0,1,5.035,38.834Z" transform="translate(-1 -1)" fill="#fff" stroke="#fff" stroke-width="1.5"/></g></g><g transform="translate(652.237 227.438)"><g transform="translate(112.895 0) rotate(90)"><circle cx="56.448" cy="56.448" r="56.448" fill="#263684"/><g fill="none" stroke="#7692ff" stroke-width="3"><circle cx="56.448" cy="56.448" r="56.448" stroke="none"/><circle cx="56.448" cy="56.448" r="54.948" fill="none"/></g></g><g transform="translate(23.485 39.16)"><path d="M38.417,22.6c0-.064,0-.129,0-.193a5.726,5.726,0,0,0-5.009-5.742A12.185,12.185,0,0,0,21.581,7,12.356,12.356,0,0,0,9.42,19.515c0,.37.019.746.056,1.136A10.566,10.566,0,0,0,1,31.066,10.456,10.456,0,0,0,11.291,41.656H36.55A9.656,9.656,0,0,0,38.417,22.6ZM36.55,39.73H11.291a8.673,8.673,0,0,1-.686-17.291l1.021-.085-.174-1.038a10.955,10.955,0,0,1-.161-1.8A10.456,10.456,0,0,1,21.581,8.925a10.336,10.336,0,0,1,10.137,8.839l.136.838.825-.035a.458.458,0,0,0,.128-.016A3.8,3.8,0,0,1,36.55,22.4a3.918,3.918,0,0,1-.085.8l-.22,1.055,1.043.1A7.714,7.714,0,0,1,36.55,39.73Z" transform="translate(-1 -7)" fill="#fff" stroke="#fff" stroke-width="1.5"/><g transform="translate(19.61)"><path d="M13288.342-15996.31l-5.3,6.486-1.022,5.336-7.465,5.415-1,8.366,4.771,6.069h34.563l5.864-6.069V-15976l-4.568-5.272h-3.94l-.889-5.259-3.759-1.242-4.4-7.737-7.054-2.271Z" transform="translate(-13272.918 15998.271)" fill="#263683" stroke="#3c00c6" stroke-width="1"/><path d="M39.6,22.6c0-.064,0-.129,0-.193a5.789,5.789,0,0,0-5.167-5.742A12.544,12.544,0,0,0,9.686,19.515c0,.37.019.746.058,1.136a10.583,10.583,0,0,0,1.872,21.005H37.675A9.625,9.625,0,0,0,39.6,22.6ZM37.675,39.73H11.617a8.659,8.659,0,0,1-.707-17.291l1.053-.085-.18-1.038a10.6,10.6,0,1,1,20.909-3.552l.14.838.851-.035a.487.487,0,0,0,.132-.016A3.859,3.859,0,0,1,37.675,22.4a3.8,3.8,0,0,1-.088.8l-.227,1.055,1.076.1a7.7,7.7,0,0,1-.761,15.364Z" transform="translate(-1 -7)" fill="#fff" stroke="#fff" stroke-width="1.5"/></g></g></g><g transform="translate(652.237 496.079)"><g transform="translate(112.895 0) rotate(90)"><circle cx="56.448" cy="56.448" r="56.448" fill="#263684"/><g fill="none" stroke="#7692ff" stroke-width="3"><circle cx="56.448" cy="56.448" r="56.448" stroke="none"/><circle cx="56.448" cy="56.448" r="54.948" fill="none"/></g></g><g transform="translate(34.198 31.744)"><path d="M15.274,47.549A8.274,8.274,0,1,0,7,39.274,8.283,8.283,0,0,0,15.274,47.549Zm0-13.791a5.516,5.516,0,1,1-5.516,5.516A5.522,5.522,0,0,1,15.274,33.758Z" transform="translate(-7 1.894)" fill="#fff" stroke="#fff" stroke-width="2"/><path d="M37.339,52.1H40.1A33.136,33.136,0,0,0,7,19v2.758A30.373,30.373,0,0,1,37.339,52.1Z" transform="translate(-7 -2.655)" fill="#fff" stroke="#fff" stroke-width="2"/><path d="M53.618,57.443h2.825A49.5,49.5,0,0,0,7,8v2.825A46.671,46.671,0,0,1,53.618,57.443Z" transform="translate(-7 -8)" fill="#fff" stroke="#fff" stroke-width="2"/></g></g><path d="M.755-6.979c0,3.033,1.813,4.7,4.648,4.7,2.851,0,4.4-1.6,4.4-4.252V-8.347H4.942v1.714h2.95v.148A2.2,2.2,0,0,1,5.4-4.012,2.565,2.565,0,0,1,2.667-6.9V-9.665A2.612,2.612,0,0,1,5.4-12.549a2.254,2.254,0,0,1,2.489,2.505V-9.9H9.8v-.132c0-2.62-1.582-4.252-4.4-4.252a4.317,4.317,0,0,0-4.648,4.7ZM13.3-14.049H11.485V-2.513H13.3Zm1.566,7.466a4.127,4.127,0,0,0,4.219,4.3,4.127,4.127,0,0,0,4.219-4.3,4.113,4.113,0,0,0-4.219-4.285A4.113,4.113,0,0,0,14.863-6.583Zm1.813,0a2.383,2.383,0,0,1,2.406-2.653,2.383,2.383,0,0,1,2.406,2.653,2.4,2.4,0,0,1-2.406,2.67A2.4,2.4,0,0,1,16.676-6.583Zm8.191-7.466V-2.513h1.78v-1.22h.231a2.874,2.874,0,0,0,2.686,1.45c2.093,0,3.774-1.8,3.774-4.3s-1.681-4.285-3.774-4.285a2.9,2.9,0,0,0-2.686,1.434h-.2v-4.615Zm4.219,4.8a2.4,2.4,0,0,1,2.439,2.67A2.409,2.409,0,0,1,29.086-3.9,2.394,2.394,0,0,1,26.68-6.583,2.38,2.38,0,0,1,29.086-9.253Zm5.521.61,1.516.857a2.459,2.459,0,0,1,2.373-1.5c1.22,0,1.9.626,1.9,1.566v.214l-3.049.313c-1.829.181-2.9,1.022-2.9,2.406,0,1.516,1.2,2.505,3.033,2.505a2.674,2.674,0,0,0,2.7-1.45h.231v1.22h1.78V-7.671c0-1.928-1.417-3.2-3.626-3.2A4.412,4.412,0,0,0,34.607-8.643Zm1.714,3.774c0-.659.56-.939,1.417-1.022l2.653-.28v.132a2.248,2.248,0,0,1-2.538,2.258C36.865-3.782,36.321-4.21,36.321-4.869Zm9.658-9.18H44.166V-2.513h1.813ZM.64,11.546a4.149,4.149,0,0,0,4.236,4.3A3.866,3.866,0,0,0,8.9,12.716L7.117,12.3a2.114,2.114,0,0,1-2.225,1.912,2.429,2.429,0,0,1-2.439-2.67A2.43,2.43,0,0,1,4.876,8.892,2.093,2.093,0,0,1,7.1,10.8l1.78-.412A3.837,3.837,0,0,0,4.859,7.261,4.132,4.132,0,0,0,.64,11.546Zm9.246,0a4.127,4.127,0,0,0,4.219,4.3,4.127,4.127,0,0,0,4.219-4.3,4.113,4.113,0,0,0-4.219-4.285A4.113,4.113,0,0,0,9.886,11.546Zm1.813,0a2.418,2.418,0,1,1,4.812,0,2.419,2.419,0,1,1-4.812,0ZM19.89,7.491v8.125H21.7V11.4a2.145,2.145,0,0,1,2.241-2.456A1.772,1.772,0,0,1,25.905,10.9v4.714h1.813V10.738A3.088,3.088,0,0,0,24.554,7.36,2.652,2.652,0,0,0,21.9,8.826H21.67V7.491Zm9.806,0v8.125h1.813V11.4A2.145,2.145,0,0,1,33.75,8.942,1.772,1.772,0,0,1,35.712,10.9v4.714h1.813V10.738A3.088,3.088,0,0,0,34.36,7.36a2.652,2.652,0,0,0-2.653,1.467h-.231V7.491Zm9.3,3.988a4.162,4.162,0,0,0,4.219,4.367A4.032,4.032,0,0,0,46.853,13.8l-1.5-.857a2.293,2.293,0,0,1-2.175,1.335,2.2,2.2,0,0,1-2.307-2.143h6.147v-.791a3.838,3.838,0,0,0-3.955-4.1A4.029,4.029,0,0,0,38.991,11.48Zm1.879-.692A2.041,2.041,0,0,1,43.046,8.81a1.966,1.966,0,0,1,2.11,1.978Zm7.136.758a4.149,4.149,0,0,0,4.236,4.3,3.866,3.866,0,0,0,4.021-3.131l-1.78-.412a2.114,2.114,0,0,1-2.225,1.912,2.429,2.429,0,0,1-2.439-2.67,2.43,2.43,0,0,1,2.423-2.653A2.093,2.093,0,0,1,54.467,10.8l1.78-.412a3.837,3.837,0,0,0-4.021-3.131A4.132,4.132,0,0,0,48.007,11.546Zm8.784-4.054V9.057H58.95v5.076a1.428,1.428,0,0,0,1.483,1.483h2.175V14.051h-1.4c-.3,0-.445-.148-.445-.478V9.057H63.07V7.491H60.763V4.822H58.95v2.67Zm7.318-2.423a1.323,1.323,0,0,0,1.368,1.318,1.319,1.319,0,1,0-1.368-1.318Zm2.274,2.423H64.57v8.125h1.813Zm1.22,0,2.917,8.125h2.637l2.917-8.125H74.112l-2.175,6.477h-.2L69.564,7.491Zm9.229-2.423A1.323,1.323,0,0,0,78.2,6.387a1.319,1.319,0,1,0-1.368-1.318Zm2.274,2.423H77.293v8.125h1.813Zm1.187,0V9.057h2.159v5.076a1.428,1.428,0,0,0,1.483,1.483h2.175V14.051h-1.4c-.3,0-.445-.148-.445-.478V9.057h2.307V7.491H84.265V4.822H82.452v2.67Zm13.712,0-2.307,6h-.2l-2.324-6H87.215l3.428,8.455-1.269,2.967h1.961L95.966,7.491Z" transform="translate(602.681 46.187)" fill="#fff"/><path d="M.78-9.6V-7c0,3.033,1.813,4.7,4.648,4.7,2.917,0,4.433-1.648,4.433-4.2v-.313H7.949v.33A2.227,2.227,0,0,1,5.428-4.033,2.565,2.565,0,0,1,2.692-6.918V-9.686a2.612,2.612,0,0,1,2.736-2.884,2.257,2.257,0,0,1,2.522,2.456v.33H9.861v-.346c0-2.522-1.582-4.17-4.433-4.17A4.317,4.317,0,0,0,.78-9.6ZM13.273-14.07H11.46V-2.534h1.813ZM14.838-6.6a4.127,4.127,0,0,0,4.219,4.3,4.127,4.127,0,0,0,4.219-4.3,4.113,4.113,0,0,0-4.219-4.285A4.113,4.113,0,0,0,14.838-6.6Zm1.813,0a2.383,2.383,0,0,1,2.406-2.653A2.383,2.383,0,0,1,21.464-6.6a2.4,2.4,0,0,1-2.406,2.67A2.4,2.4,0,0,1,16.651-6.6ZM32.572-2.534v-8.125H30.759V-6.44a2.145,2.145,0,0,1-2.241,2.456,1.785,1.785,0,0,1-1.961-1.978v-4.7H24.743V-5.8a3.111,3.111,0,0,0,3.164,3.4,2.644,2.644,0,0,0,2.653-1.483h.231v1.351ZM42.609-14.07H40.8v4.615h-.2a2.876,2.876,0,0,0-2.686-1.434c-2.077,0-3.774,1.78-3.774,4.285s1.7,4.3,3.774,4.3A2.855,2.855,0,0,0,40.6-3.753h.231v1.22h1.78Zm-4.219,4.8A2.38,2.38,0,0,1,40.8-6.6,2.394,2.394,0,0,1,38.39-3.918,2.409,2.409,0,0,1,35.951-6.6,2.4,2.4,0,0,1,38.39-9.274Zm10.779.841c0,1.533,1.121,2.192,3.181,2.456l.478.066c.873.115,1.813.214,1.813.939,0,.709-.791,1.154-1.8,1.154a3,3,0,0,1-2.769-1.8l-1.516.89A4.688,4.688,0,0,0,52.794-2.3c2.126,0,3.626-1.121,3.626-2.719s-1.2-2.159-3.428-2.439l-.478-.066c-.873-.115-1.566-.231-1.566-.923,0-.593.544-.956,1.384-.956a3.447,3.447,0,0,1,2.686,1.5l1.318-1.005a5.1,5.1,0,0,0-3.988-1.978C50.586-10.89,49.168-9.95,49.168-8.434ZM57.409-6.67A4.162,4.162,0,0,0,61.628-2.3,4.032,4.032,0,0,0,65.27-4.347l-1.5-.857A2.293,2.293,0,0,1,61.6-3.869a2.2,2.2,0,0,1-2.307-2.143h6.147V-6.8a3.838,3.838,0,0,0-3.955-4.1A4.029,4.029,0,0,0,57.409-6.67Zm1.879-.692A2.041,2.041,0,0,1,61.463-9.34a1.966,1.966,0,0,1,2.11,1.978Zm9.411-3.3H66.935v8.125h1.813V-7.2a1.632,1.632,0,0,1,1.8-1.8h1.318v-1.7h-.857a1.9,1.9,0,0,0-2.077,1.286H68.7Zm4.054,0L75.67-2.534h2.637l2.917-8.125H79.263L77.087-4.182h-.2l-2.175-6.477Zm9.229-2.423a1.323,1.323,0,0,0,1.368,1.318A1.309,1.309,0,0,0,84.7-13.082,1.3,1.3,0,0,0,83.35-14.4,1.313,1.313,0,0,0,81.982-13.082Zm2.274,2.423H82.444v8.125h1.813ZM85.822-6.6a4.149,4.149,0,0,0,4.236,4.3,3.866,3.866,0,0,0,4.021-3.131L92.3-5.846a2.114,2.114,0,0,1-2.225,1.912A2.429,2.429,0,0,1,87.635-6.6a2.43,2.43,0,0,1,2.423-2.653,2.093,2.093,0,0,1,2.225,1.912l1.78-.412a3.837,3.837,0,0,0-4.021-3.131A4.132,4.132,0,0,0,85.822-6.6Zm9.246-.066A4.162,4.162,0,0,0,99.287-2.3a4.032,4.032,0,0,0,3.642-2.044l-1.5-.857a2.293,2.293,0,0,1-2.175,1.335,2.2,2.2,0,0,1-2.307-2.143h6.147V-6.8a3.838,3.838,0,0,0-3.955-4.1A4.029,4.029,0,0,0,95.068-6.67Zm1.879-.692A2.041,2.041,0,0,1,99.122-9.34a1.966,1.966,0,0,1,2.11,1.978ZM1.176,18.892H2.988V14.376h.2a2.874,2.874,0,0,0,2.686,1.45c2.093,0,3.774-1.8,3.774-4.3S7.966,7.24,5.873,7.24A2.9,2.9,0,0,0,3.186,8.673H2.955V7.47H1.176Zm4.219-4.681a2.394,2.394,0,0,1-2.406-2.686,2.38,2.38,0,0,1,2.406-2.67,2.4,2.4,0,0,1,2.439,2.67A2.409,2.409,0,0,1,5.395,14.211ZM12.976,7.47H11.212V15.6h1.813V10.931a1.632,1.632,0,0,1,1.8-1.8H16.14v-1.7h-.857a1.9,1.9,0,0,0-2.077,1.286h-.231Zm3.576,4.054a4.22,4.22,0,1,0,8.438,0A4.113,4.113,0,0,0,20.772,7.24,4.113,4.113,0,0,0,16.552,11.525Zm1.813,0a2.418,2.418,0,1,1,4.812,0,2.419,2.419,0,1,1-4.812,0ZM25.535,7.47,28.452,15.6h2.637L34.006,7.47H32.045l-2.175,6.477h-.2L27.5,7.47Zm9.229-2.423a1.323,1.323,0,0,0,1.368,1.318,1.319,1.319,0,1,0-1.368-1.318ZM37.038,7.47H35.225V15.6h1.813ZM47.075,4.059H45.262V8.673h-.2A2.876,2.876,0,0,0,42.378,7.24C40.3,7.24,38.6,9.02,38.6,11.525s1.7,4.3,3.774,4.3a2.855,2.855,0,0,0,2.686-1.45H45.3V15.6h1.78Zm-4.219,4.8a2.38,2.38,0,0,1,2.406,2.67,2.436,2.436,0,1,1-4.845,0A2.4,2.4,0,0,1,42.856,8.855Zm5.785,2.6a4.162,4.162,0,0,0,4.219,4.367A4.032,4.032,0,0,0,56.5,13.783L55,12.926a2.293,2.293,0,0,1-2.175,1.335,2.2,2.2,0,0,1-2.307-2.143h6.147v-.791a3.838,3.838,0,0,0-3.955-4.1A4.029,4.029,0,0,0,48.641,11.459Zm1.879-.692A2.041,2.041,0,0,1,52.7,8.789a1.966,1.966,0,0,1,2.11,1.978Zm9.411-3.3H58.167V15.6H59.98V10.931a1.632,1.632,0,0,1,1.8-1.8h1.318v-1.7h-.857a1.9,1.9,0,0,0-2.077,1.286H59.93ZM63.968,9.7c0,1.533,1.121,2.192,3.181,2.456l.478.066c.873.115,1.813.214,1.813.939,0,.709-.791,1.154-1.8,1.154a3,3,0,0,1-2.769-1.8l-1.516.89a4.688,4.688,0,0,0,4.236,2.423c2.126,0,3.626-1.121,3.626-2.719s-1.2-2.159-3.428-2.439l-.478-.066c-.873-.115-1.566-.231-1.566-.923,0-.593.544-.956,1.384-.956a3.447,3.447,0,0,1,2.686,1.5l1.318-1.005A5.1,5.1,0,0,0,67.149,7.24C65.386,7.24,63.968,8.179,63.968,9.7Zm14.388,5.274c0,3.412,1.978,4.714,4.565,4.714V18.018c-1.862-.033-2.752-1.071-2.752-3.2V7.141c0-2.126.89-3.164,2.752-3.2V2.279c-2.588,0-4.565,1.3-4.565,4.714Zm5.538-6.444v2.6c0,3.033,1.813,4.7,4.648,4.7,2.917,0,4.433-1.648,4.433-4.2V11.31H91.063v.33A2.227,2.227,0,0,1,88.542,14.1a2.565,2.565,0,0,1-2.736-2.884V8.443a2.612,2.612,0,0,1,2.736-2.884,2.257,2.257,0,0,1,2.522,2.456v.33h1.912V8c0-2.522-1.582-4.17-4.433-4.17A4.317,4.317,0,0,0,83.894,8.525Zm14.553-4.7c-2.192,0-3.939,1.253-3.939,3.263,0,2.126,1.467,2.917,3.692,3.412l.445.1c1.5.313,2.291.709,2.291,1.763,0,.972-.791,1.763-2.258,1.763a2.43,2.43,0,0,1-2.752-2.6v-.346h-1.9v.445c0,2.62,1.8,4.2,4.615,4.2,2.406,0,4.186-1.318,4.186-3.543,0-2.044-1.351-2.917-3.609-3.412l-.445-.1C97.26,8.426,96.4,8.13,96.4,7.058c0-.906.824-1.533,2.044-1.533,1.417,0,2.357.676,2.357,2.077v.379h1.879V7.47C102.682,5.13,100.869,3.828,98.447,3.828Zm6.114.231V15.6h1.912V11.179h2.7a3.435,3.435,0,0,0,3.626-3.56,3.4,3.4,0,0,0-3.626-3.56Zm1.912,1.747h2.505a1.709,1.709,0,0,1,1.912,1.813,1.717,1.717,0,0,1-1.912,1.813h-2.505Zm7.136,3.89c0,1.533,1.121,2.192,3.181,2.456l.478.066c.873.115,1.813.214,1.813.939,0,.709-.791,1.154-1.8,1.154a3,3,0,0,1-2.769-1.8L113,13.4a4.688,4.688,0,0,0,4.236,2.423c2.126,0,3.626-1.121,3.626-2.719s-1.2-2.159-3.428-2.439l-.478-.066c-.873-.115-1.566-.231-1.566-.923,0-.593.544-.956,1.384-.956a3.447,3.447,0,0,1,2.686,1.5l1.318-1.005A5.1,5.1,0,0,0,116.79,7.24C115.027,7.24,113.609,8.179,113.609,9.7Zm12.608,5.274V6.992c0-3.412-1.978-4.714-4.565-4.714V3.943c1.879.033,2.752,1.071,2.752,3.2v7.68c0,2.126-.874,3.164-2.752,3.2v1.665C124.239,19.683,126.217,18.381,126.217,14.969Z" transform="translate(789.717 284.359)" fill="#fff"/><path d="M1.117-14V-2.463H3.029V-14Zm4.021,3.412v8.125H6.951V-6.682A2.145,2.145,0,0,1,9.193-9.138a1.772,1.772,0,0,1,1.961,1.961v4.714h1.813V-7.342A3.088,3.088,0,0,0,9.8-10.72,2.652,2.652,0,0,0,7.149-9.253H6.918v-1.335Zm8.751,0v1.566h2.159v5.076a1.428,1.428,0,0,0,1.483,1.483h2.175V-4.029h-1.4c-.3,0-.445-.148-.445-.478V-9.023h2.307v-1.566H17.862v-2.67H16.049v2.67ZM21.076-6.6a4.162,4.162,0,0,0,4.219,4.367,4.032,4.032,0,0,0,3.642-2.044l-1.5-.857A2.293,2.293,0,0,1,25.262-3.8a2.2,2.2,0,0,1-2.307-2.143H29.1v-.791a3.838,3.838,0,0,0-3.955-4.1A4.029,4.029,0,0,0,21.076-6.6Zm1.879-.692A2.041,2.041,0,0,1,25.13-9.27a1.966,1.966,0,0,1,2.11,1.978Zm9.411-3.3H30.6v8.125h1.813V-7.127a1.632,1.632,0,0,1,1.8-1.8h1.318v-1.7h-.857A1.9,1.9,0,0,0,32.6-9.336h-.231Zm4.417,0v8.125h1.813V-6.682a2.145,2.145,0,0,1,2.241-2.456A1.772,1.772,0,0,1,42.8-7.177v4.714H44.61V-7.342a3.088,3.088,0,0,0-3.164-3.379,2.652,2.652,0,0,0-2.653,1.467h-.231v-1.335Zm9.3,3.988A4.162,4.162,0,0,0,50.3-2.233a4.032,4.032,0,0,0,3.642-2.044l-1.5-.857A2.293,2.293,0,0,1,50.263-3.8a2.2,2.2,0,0,1-2.307-2.143H54.1v-.791a3.838,3.838,0,0,0-3.955-4.1A4.029,4.029,0,0,0,46.077-6.6Zm1.879-.692A2.041,2.041,0,0,1,50.132-9.27a1.966,1.966,0,0,1,2.11,1.978Zm6.675-3.3v1.566H56.79v5.076a1.428,1.428,0,0,0,1.483,1.483h2.175V-4.029h-1.4c-.3,0-.445-.148-.445-.478V-9.023H60.91v-1.566H58.6v-2.67H56.79v2.67ZM.87,9.766c0,1.533,1.121,2.192,3.181,2.456l.478.066c.873.115,1.813.214,1.813.939,0,.709-.791,1.154-1.8,1.154a3,3,0,0,1-2.769-1.8l-1.516.89A4.688,4.688,0,0,0,4.5,15.9c2.126,0,3.626-1.121,3.626-2.719s-1.2-2.159-3.428-2.439l-.478-.066c-.873-.115-1.566-.231-1.566-.923,0-.593.544-.956,1.384-.956a3.447,3.447,0,0,1,2.686,1.5L8.039,9.288A5.1,5.1,0,0,0,4.051,7.31C2.287,7.31.87,8.249.87,9.766ZM9.11,11.529A4.162,4.162,0,0,0,13.329,15.9a4.032,4.032,0,0,0,3.642-2.044L15.472,13A2.293,2.293,0,0,1,13.3,14.331a2.2,2.2,0,0,1-2.307-2.143h6.147V11.4a3.838,3.838,0,0,0-3.955-4.1A4.029,4.029,0,0,0,9.11,11.529Zm1.879-.692a2.041,2.041,0,0,1,2.175-1.978,1.966,1.966,0,0,1,2.11,1.978Zm9.411-3.3H18.636v8.125h1.813V11a1.632,1.632,0,0,1,1.8-1.8h1.318v-1.7h-.857a1.9,1.9,0,0,0-2.077,1.286H20.4Zm4.054,0,2.917,8.125h2.637l2.917-8.125H30.964l-2.175,6.477h-.2L26.415,7.541Zm9.229-2.423a1.323,1.323,0,0,0,1.368,1.318,1.319,1.319,0,1,0-1.368-1.318Zm2.274,2.423H34.145v8.125h1.813ZM37.524,11.6a4.149,4.149,0,0,0,4.236,4.3,3.866,3.866,0,0,0,4.021-3.131L44,12.353a2.114,2.114,0,0,1-2.225,1.912,2.429,2.429,0,0,1-2.439-2.67,2.43,2.43,0,0,1,2.423-2.653,2.093,2.093,0,0,1,2.225,1.912l1.78-.412A3.837,3.837,0,0,0,41.743,7.31,4.132,4.132,0,0,0,37.524,11.6Zm9.246-.066A4.162,4.162,0,0,0,50.989,15.9a4.032,4.032,0,0,0,3.642-2.044L53.131,13a2.293,2.293,0,0,1-2.175,1.335,2.2,2.2,0,0,1-2.307-2.143H54.8V11.4a3.838,3.838,0,0,0-3.955-4.1A4.029,4.029,0,0,0,46.769,11.529Zm1.879-.692a2.041,2.041,0,0,1,2.175-1.978,1.966,1.966,0,0,1,2.11,1.978Zm7.4-1.071c0,1.533,1.121,2.192,3.181,2.456l.478.066c.873.115,1.813.214,1.813.939,0,.709-.791,1.154-1.8,1.154a3,3,0,0,1-2.769-1.8l-1.516.89A4.688,4.688,0,0,0,59.674,15.9c2.126,0,3.626-1.121,3.626-2.719s-1.2-2.159-3.428-2.439l-.478-.066c-.873-.115-1.566-.231-1.566-.923,0-.593.544-.956,1.384-.956a3.447,3.447,0,0,1,2.686,1.5l1.318-1.005A5.1,5.1,0,0,0,59.229,7.31C57.466,7.31,56.048,8.249,56.048,9.766Z" transform="translate(789.808 552.106)" fill="#fff"/><path d="M-26.734-14l3.379,11.537h3L-16.977-14h-2.011l-2.769,9.823h-.2L-24.723-14Zm10.96,0V-2.463h7.416V-4.21h-5.5V-14Zm11.257,0L-7.929-2.463h1.994l.775-2.67H-.826l.758,2.67H1.926L-1.469-14Zm-.165,7.12L-3.1-12.368h.2L-1.3-6.88ZM3.162-14V-2.463H5.074v-9.773h.2l3.1,9.773h3.461V-14H9.92v9.773h-.2L6.607-14ZM-39.68,11.529A4.162,4.162,0,0,0-35.461,15.9a4.032,4.032,0,0,0,3.642-2.044l-1.5-.857a2.293,2.293,0,0,1-2.175,1.335A2.2,2.2,0,0,1-37.8,12.188h6.147V11.4a3.838,3.838,0,0,0-3.955-4.1A4.029,4.029,0,0,0-39.68,11.529Zm1.879-.692a2.041,2.041,0,0,1,2.175-1.978,1.966,1.966,0,0,1,2.11,1.978Zm6.675-3.3V9.106h2.159v5.076a1.428,1.428,0,0,0,1.483,1.483h2.175V14.1h-1.4c-.3,0-.445-.148-.445-.478V9.106h2.307V7.541h-2.307V4.871h-1.813v2.67Zm7.779-3.412V15.666h1.813V11.447a2.145,2.145,0,0,1,2.241-2.456,1.772,1.772,0,0,1,1.961,1.961v4.714h1.813V10.787a3.088,3.088,0,0,0-3.164-3.379,2.652,2.652,0,0,0-2.653,1.467h-.2V4.129Zm9.3,7.4A4.162,4.162,0,0,0-9.833,15.9a4.032,4.032,0,0,0,3.642-2.044L-7.69,13a2.293,2.293,0,0,1-2.175,1.335,2.2,2.2,0,0,1-2.307-2.143h6.147V11.4a3.838,3.838,0,0,0-3.955-4.1A4.029,4.029,0,0,0-14.052,11.529Zm1.879-.692A2.041,2.041,0,0,1-10,8.859a1.966,1.966,0,0,1,2.11,1.978Zm9.411-3.3H-4.526v8.125h1.813V11a1.632,1.632,0,0,1,1.8-1.8H.4v-1.7H-.455A1.9,1.9,0,0,0-2.532,8.793h-.231Zm4.417,0v8.125H3.467V11.447A2.145,2.145,0,0,1,5.709,8.991,1.772,1.772,0,0,1,7.67,10.952v4.714H9.483V10.787A3.088,3.088,0,0,0,6.319,7.409,2.652,2.652,0,0,0,3.665,8.876H3.434V7.541Zm9.3,3.988A4.162,4.162,0,0,0,15.169,15.9a4.032,4.032,0,0,0,3.642-2.044L17.311,13a2.293,2.293,0,0,1-2.175,1.335,2.2,2.2,0,0,1-2.307-2.143h6.147V11.4a3.838,3.838,0,0,0-3.955-4.1A4.029,4.029,0,0,0,10.95,11.529Zm1.879-.692A2.041,2.041,0,0,1,15,8.859a1.966,1.966,0,0,1,2.11,1.978Zm6.675-3.3V9.106h2.159v5.076a1.428,1.428,0,0,0,1.483,1.483h2.175V14.1h-1.4c-.3,0-.445-.148-.445-.478V9.106h2.307V7.541H23.475V4.871H21.662v2.67Z" transform="translate(379.865 73.332)" fill="#fff"/><text transform="translate(181.934 570)" fill="#fff" font-size="12" font-family="SpaceGrotesk-Bold, Space Grotesk" font-weight="700"><tspan x="-3.828" y="0"></tspan></text><text transform="translate(210.934 570)" fill="#fff" font-size="12" font-family="SpaceGrotesk-Bold, Space Grotesk" font-weight="700"><tspan x="-3.972" y="0"></tspan></text><text transform="translate(195.334 542.102)" fill="#fff" font-size="11" font-family="SpaceGrotesk-Bold, Space Grotesk" font-weight="700"><tspan x="-3.344" y="0">$</tspan></text></g></g></svg>